<svg preserveAspectRatio="none" viewBox="0 0 768 24" fill="none" xmlns="http://www.w3.org/2000/svg">
<g clip-path="url(#clip0_662_36)">
<mask id="mask0_662_36" style="mask-type:alpha" maskUnits="userSpaceOnUse" x="0" y="-13" width="768" height="94">
<rect y="-13" width="768" height="93.3333" fill="#C4C4C4"/>
</mask>
<g mask="url(#mask0_662_36)">
<path d="M86.7617 17.7808C37.1861 33.6103 -6.13894 8.37204 -23.1724 0.285187H-40.5055L-52.1934 439.308H787.679V9.89606C789.072 9.2811 789.199 8.91632 787.679 8.91632V9.89606C780.206 13.1957 736.291 23.6978 714.755 23.6978C671.537 23.6978 648.693 -1.8143 607.649 0.285187C566.606 2.38464 549.754 17.7808 498.382 17.7808C447.01 17.7808 417.654 -13.5899 352.42 8.91632C308.611 24.0307 257.585 16.9261 229.164 8.91632C184.667 -3.62402 148.801 -2.02859 86.7617 17.7808Z" fill="#362677"/>
</g>
</g>
<defs>
<clipPath id="clip0_662_36">
<rect width="768" height="24" fill="white"/>
</clipPath>
</defs>
</svg>
