<svg preserveAspectRatio="none" viewBox="0 0 320 11" fill="none" xmlns="http://www.w3.org/2000/svg">
<g clip-path="url(#clip0_662_43)">
<mask id="mask0_662_43" style="mask-type:alpha" maskUnits="userSpaceOnUse" x="0" y="-5" width="320" height="39">
<rect y="-5" width="320" height="38.8889" fill="#C4C4C4"/>
</mask>
<g mask="url(#mask0_662_43)">
<path d="M36.1509 7.82571C15.4944 14.4214 -2.55773 3.90543 -9.65499 0.535904H-16.8771L-21.7471 183.462H328.2V4.54044C328.78 4.28421 328.833 4.13222 328.2 4.13222V4.54044C325.086 5.91528 306.788 10.2911 297.815 10.2911C279.807 10.2911 270.289 -0.338882 253.187 0.535904C236.086 1.41068 229.064 7.82571 207.659 7.82571C186.254 7.82571 174.023 -5.24538 146.842 4.13222C128.588 10.4299 107.327 7.4696 95.4851 4.13222C76.9449 -1.09294 62.0007 -0.428177 36.1509 7.82571Z" fill="#362677"/>
</g>
</g>
<defs>
<clipPath id="clip0_662_43">
<rect width="320" height="11" fill="white"/>
</clipPath>
</defs>
</svg>
