<svg width="15" height="14" viewBox="0 0 15 14" fill="none" xmlns="http://www.w3.org/2000/svg">
<g clip-path="url(#clip0_490_3583)">
<path d="M3.70363 8.94749C6.62686 10.056 9.11453 10.272 11.9336 8.54647C11.9129 8.57659 11.3553 9.37937 9.88885 9.79078C10.1986 10.2022 10.6221 10.6738 10.6221 10.6738C11.5618 10.6738 12.4809 10.4129 13.2761 9.91119C13.8957 9.50979 14.2468 8.81739 14.1745 8.0949C14.0506 6.86061 13.7511 5.65643 13.2864 4.50245C12.6978 2.99724 11.283 1.9536 9.64101 1.80307C9.49643 1.79303 9.39318 1.79303 9.33122 1.79303L9.166 1.95357C11.0558 2.47539 11.9956 3.2882 12.0162 3.31832C9.11434 1.89336 5.68585 1.87331 2.76333 3.25811C2.76333 3.25811 3.69275 2.36501 5.74777 1.89336L5.62386 1.77295C5.40698 1.77295 5.20044 1.79303 4.9836 1.82312C3.46554 2.07399 2.19536 3.0875 1.64803 4.48234C1.17298 5.68652 0.863185 6.9509 0.749597 8.23537C0.687638 8.91773 1.0181 9.59008 1.5964 9.98144C2.36057 10.4731 3.26933 10.734 4.18843 10.734C4.18843 10.734 4.56018 10.2624 4.93197 9.84095C3.53784 9.43954 2.96987 8.63677 2.95954 8.60665L3.22191 8.73684C3.37875 8.81471 3.53955 8.88525 3.70363 8.94749ZM5.32439 8.07482C4.65314 8.05474 4.12647 7.50284 4.14713 6.84053C4.16779 6.21838 4.68413 5.71664 5.32439 5.69656C5.99564 5.71664 6.52231 6.26854 6.50165 6.93085C6.47066 7.55304 5.96465 8.05477 5.32439 8.07482ZM9.53773 8.07482C8.86647 8.05474 8.3398 7.50284 8.36047 6.84053C8.38113 6.21838 8.89747 5.71664 9.53773 5.69656C10.209 5.71664 10.7357 6.26854 10.715 6.93085C10.6944 7.55304 10.178 8.05477 9.53773 8.07482Z" fill="#443F8B" fill-opacity="0.8"/>
</g>
<defs>
<clipPath id="clip0_490_3583">
<rect width="13.4416" height="13.4416" fill="white" transform="translate(0.742188 0.279297)"/>
</clipPath>
</defs>
</svg>
