<svg width="15" height="15" viewBox="0 0 15 15" fill="none" xmlns="http://www.w3.org/2000/svg">
<path d="M5.69433 13.6906C6.12505 13.6906 6.24677 13.5221 6.24677 13.3067C6.24677 13.0914 6.24677 12.6232 6.23741 11.9584C3.99956 12.4359 3.52203 10.891 3.52203 10.891C3.15686 9.98273 2.62315 9.72992 2.62315 9.72992C1.8928 9.24302 2.67933 9.25239 2.67933 9.25239C3.48458 9.30857 3.91529 10.067 3.91529 10.067C4.63627 11.2842 5.79733 10.9284 6.25614 10.7224C6.29359 10.3198 6.47149 9.93591 6.77112 9.65501C4.98272 9.45838 3.10068 8.77486 3.10068 5.74112C3.09131 4.9546 3.39094 4.1868 3.93402 3.61563C3.84039 3.419 3.56885 2.61375 3.99956 1.51824C3.99956 1.51824 4.67373 1.30288 6.21868 2.33285C7.53892 1.97704 8.9247 1.97704 10.2449 2.33285C11.7712 1.31224 12.4547 1.51824 12.4547 1.51824C12.8854 2.60439 12.6139 3.40964 12.539 3.61563C13.082 4.1868 13.3723 4.9546 13.3629 5.74112C13.3629 8.78422 11.4809 9.44902 9.68313 9.64565C9.96404 9.87973 10.2262 10.3666 10.2262 11.1063C10.2262 12.1738 10.2168 13.0165 10.2168 13.2693C10.2168 13.4753 10.3105 13.6438 10.7693 13.6438L5.69433 13.6906Z" fill="#443F8B" fill-opacity="0.8"/>
</svg>
