<svg width="15" height="15" viewBox="0 0 15 15" fill="none" xmlns="http://www.w3.org/2000/svg">
<g clip-path="url(#clip0_490_3579)">
<path d="M12.0911 3.99437L13.0535 3.064V2.86035H9.71954L7.34347 8.83666L4.64023 2.86035H1.14446V3.064L2.26867 4.43162C2.37823 4.53268 2.43552 4.68046 2.42095 4.82926V10.2038C2.45563 10.3973 2.39331 10.5963 2.25862 10.737L0.992188 12.288V12.4891H4.58294V12.2854L3.3165 10.737C3.1793 10.5958 3.11447 10.4003 3.14211 10.2038V5.55497L6.29413 12.4916H6.6605L9.37077 5.55497V11.0808C9.37077 11.2266 9.37077 11.2565 9.27629 11.352L8.30133 12.3052V12.5094H13.0314V12.3057L12.0916 11.3759C12.0092 11.3129 11.9665 11.2073 11.9841 11.1047V4.26556C11.9665 4.16246 12.0087 4.05683 12.0911 3.99437Z" fill="#443F8B" fill-opacity="0.8"/>
</g>
<defs>
<clipPath id="clip0_490_3579">
<rect width="14.2323" height="14.2323" fill="white" transform="translate(0.203125 0.488281)"/>
</clipPath>
</defs>
</svg>
