<svg width="15" height="15" viewBox="0 0 15 15" fill="none" xmlns="http://www.w3.org/2000/svg">
<path d="M13.7036 3.61258C13.2448 3.80921 12.7579 3.94966 12.271 4.00584C12.7954 3.69685 13.1887 3.20059 13.3759 2.62006C12.8797 2.90096 12.3459 3.11632 11.7935 3.22868C10.8478 2.2268 9.2654 2.16126 8.26352 3.10696C7.7579 3.57513 7.46763 4.24929 7.46763 4.94218C7.46763 5.12945 7.47699 5.32608 7.53317 5.51335C5.50132 5.41035 3.62865 4.45529 2.35523 2.90097C1.69043 4.0433 2.01815 5.51335 3.12302 6.24369C2.72976 6.23433 2.34586 6.13133 1.99942 5.9347L1.99942 5.96279C1.99942 7.15194 2.84212 8.18191 4.00318 8.416C3.79719 8.48154 3.57247 8.50027 3.34775 8.50027C3.18857 8.50027 3.02939 8.4909 2.87958 8.46281C3.20729 9.47406 4.14363 10.1669 5.22042 10.2044C4.34026 10.8973 3.25411 11.2718 2.12114 11.2718C1.92451 11.2718 1.72788 11.2625 1.53125 11.2344C2.67358 11.9741 4.00318 12.358 5.37023 12.358C9.96765 12.358 12.477 8.54708 12.477 5.25117C12.477 5.13881 12.477 5.02645 12.4677 4.93282C12.9452 4.55828 13.3666 4.10884 13.7036 3.61258Z" fill="#443F8B" fill-opacity="0.8"/>
</svg>
