<svg preserveAspectRatio="none" viewBox="0 0 1440 45" fill="none" xmlns="http://www.w3.org/2000/svg">
<g clip-path="url(#clip0_647_30)">
<path fill-rule="evenodd" clip-rule="evenodd" d="M1440 -587H0V13.2166C31.298 28.3975 74.1375 44.8086 99.9042 44.8086C139.682 44.8086 170.261 33.2982 200.184 22.0345C231.262 10.3364 261.632 -1.09546 300.866 0.910034C335.162 2.66315 360.456 9.36108 386.477 16.2517C418.885 24.8335 452.422 33.7142 505.885 33.7142C541.538 33.7142 571.539 25.6666 601.387 17.6604C652.231 4.02173 702.628 -9.4967 779.753 17.0934C861.952 45.4329 957.693 32.1117 1011.02 17.0934C1094.51 -6.41974 1161.8 -3.42828 1278.21 33.7142C1339.3 53.2061 1397.91 28.3134 1440 4.63171V-587Z" fill="#362677"/>
</g>
<defs>
<clipPath id="clip0_647_30">
<rect width="1440" height="45" fill="white"/>
</clipPath>
</defs>
</svg>
