<svg width="13" height="13" viewBox="0 0 13 13" fill="none" xmlns="http://www.w3.org/2000/svg">
<g clip-path="url(#clip0_490_3561)">
<path d="M5.41356 7.96491C5.73699 8.18052 6.11267 8.2945 6.5 8.2945C6.88731 8.2945 7.26299 8.18052 7.58641 7.96491L12.9134 4.41345C12.943 4.39374 12.9718 4.3732 13 4.35208V10.1715C13 10.8387 12.4585 11.3683 11.8033 11.3683H1.19676C0.529548 11.3683 2.67029e-05 10.8268 2.67029e-05 10.1715V4.35205C0.028286 4.37323 0.0571299 4.39382 0.0867605 4.41355L5.41356 7.96491Z" fill="#6764A2"/>
<path d="M12.4909 3.77944L7.16389 7.33092C6.96224 7.46537 6.73113 7.53258 6.50003 7.53258C6.26889 7.53258 6.03776 7.46534 5.83611 7.33092L0.509082 3.77944C0.190303 3.56704 0 3.21157 0 2.82792C0 2.16825 0.536682 1.63159 1.19633 1.63159H11.8037C12.4633 1.63162 13 2.16827 13 2.82856C13 3.21157 12.8097 3.56704 12.4909 3.77944Z" fill="#6764A2"/>
</g>
<defs>
<clipPath id="clip0_490_3561">
<rect width="13" height="13" fill="white" transform="matrix(-1 0 0 1 13 0)"/>
</clipPath>
</defs>
</svg>
