<svg width="104" height="27" viewBox="0 0 104 27" fill="none" xmlns="http://www.w3.org/2000/svg">
<path d="M26.4216 6.00978C25.5512 7.61929 24.1154 8.84602 22.3938 9.45115C20.6651 10.0625 18.7726 10.0128 17.0781 9.31153C17.9485 7.70202 19.3843 6.4753 21.106 5.87016C22.8352 5.25948 24.7279 5.31095 26.4216 6.0147" fill="#39D86E"/>
<path d="M5.71875 16.9621C6.3014 18.5675 7.43042 19.9146 8.90638 20.7653C10.3891 21.6208 12.1227 21.93 13.8082 21.6396C15.4937 21.3491 17.0254 20.4773 18.1392 19.1744C19.2425 17.8774 19.8497 16.2283 19.852 14.5226V14.1293C19.7879 13.1893 19.3585 12.3121 18.6563 11.6869C17.95 11.0572 17.029 10.7254 16.0851 10.7606C15.1412 10.7958 14.2473 11.1952 13.5894 11.8757C12.9365 12.552 12.5746 13.4589 12.5817 14.4007C12.5822 15.3458 12.2117 16.253 11.5505 16.9257C10.8849 17.6022 9.98436 17.9937 9.03761 18.0181H8.83098C7.70962 17.9985 6.62205 17.6295 5.71875 16.9621Z" fill="#C336D8"/>
<path d="M8.93529 17.079C9.46195 17.0728 9.97501 16.9103 10.4099 16.612C10.8448 16.3137 11.1821 15.8929 11.3793 15.4025C11.5765 14.9122 11.6249 14.3742 11.5183 13.8564C11.4117 13.3385 11.1549 12.8639 10.7802 12.4922C10.4056 12.1205 9.92978 11.8684 9.41275 11.7676C8.89571 11.6669 8.36053 11.7219 7.87457 11.9258C7.38861 12.1297 6.97358 12.4734 6.68172 12.9136C6.38986 13.3538 6.23422 13.8708 6.23438 14.3996C6.23643 14.7536 6.30792 15.1038 6.44478 15.43C6.58164 15.7563 6.78117 16.0523 7.03199 16.3011C7.28281 16.5499 7.57999 16.7467 7.90657 16.8802C8.23314 17.0136 8.58271 17.0812 8.93529 17.079Z" fill="#C336D8"/>
<path d="M6.28301 25.3295C4.85908 24.5135 3.60924 23.4239 2.6049 22.1228C1.60057 20.8217 0.861426 19.3347 0.429716 17.7466C0.00228618 16.1637 -0.107702 14.5113 0.106138 12.8854C0.319977 11.2594 0.853384 9.6923 1.67539 8.27502C2.02317 7.68034 2.41813 7.11478 2.85643 6.58383L2.87601 6.55925L8.50113 0C8.8455 0.289073 9.12916 0.644039 9.33559 1.04423C9.54203 1.44442 9.66711 1.88184 9.70357 2.33103C9.74002 2.78023 9.68712 3.23221 9.54793 3.66068C9.40875 4.08914 9.18607 4.48553 8.89285 4.82677L5.51817 8.75976C4.71961 9.72654 4.13105 10.8502 3.79023 12.0587C3.44942 13.2671 3.36385 14.5338 3.53903 15.7774C3.71422 17.021 4.14627 18.2141 4.80751 19.2803C5.46875 20.3465 6.34458 21.2622 7.37885 21.9687C8.94803 23.0442 10.8097 23.6069 12.7094 23.58C14.6091 23.553 16.4542 22.9378 17.9925 21.8183C19.0083 21.0777 19.86 20.1336 20.4937 19.0455C20.7434 18.6128 20.9576 18.1603 21.1341 17.6926L22.8773 12.8196C23.1913 11.9682 23.8277 11.2758 24.6479 10.8934C25.4722 10.5078 26.4141 10.4609 27.2724 10.7626L24.3668 18.898C23.7219 20.599 22.7141 22.1377 21.4142 23.4062C19.4383 25.3263 16.8957 26.5516 14.1677 26.8983C11.4396 27.2451 8.67315 26.6946 6.28301 25.3295Z" fill="#5B41F5"/>
<path d="M72.8298 7.28788L68.6638 19.7397C68.4677 20.3236 68.0931 20.8304 67.5934 21.1881C67.0904 21.5475 66.4883 21.7407 65.8708 21.7406H65.202L61.8988 11.8511L59.2605 19.7397C59.0632 20.3251 58.686 20.8325 58.1833 21.189C57.6791 21.5483 57.076 21.7411 56.4578 21.7406H55.7899L50.9609 7.2869H51.8883C52.5068 7.28491 53.1105 7.47708 53.6148 7.83654C54.1148 8.19412 54.4897 8.70094 54.6862 9.28486L57.1962 16.7841L60.374 7.28198H61.3024C61.921 7.28209 62.5242 7.47595 63.0279 7.83654C63.5306 8.19433 63.9077 8.70269 64.1051 9.28879L66.6014 16.7841L69.1113 9.28289C69.3077 8.69944 69.6827 8.19321 70.1827 7.83654C70.6856 7.47687 71.2878 7.28371 71.9053 7.28395L72.8298 7.28788Z" fill="#5B41F5"/>
<path d="M26.0625 21.7397L30.8973 7.28592H31.5681C32.1881 7.28306 32.7934 7.47565 33.2986 7.83654C33.8011 8.19328 34.1782 8.70063 34.3758 9.28585L38.5408 21.7387H37.6075C36.9907 21.7385 36.3893 21.5453 35.8869 21.1861C35.3874 20.8295 35.0127 20.3237 34.8165 19.7407L32.3065 12.2366L29.7966 19.7407C29.6025 20.3251 29.2283 20.8323 28.7282 21.1891C28.2257 21.5489 27.6238 21.7421 27.0065 21.7416L26.0625 21.7397Z" fill="#5B41F5"/>
<path d="M40.0469 21.7395V7.30931H45.4183C46.8621 7.2961 48.2527 7.85503 49.2885 8.86481C49.798 9.36081 50.2041 9.95356 50.4833 10.6086C50.7625 11.2636 50.9092 11.9679 50.9149 12.6803C50.9205 13.3928 50.785 14.0993 50.5162 14.7587C50.2475 15.4181 49.8508 16.0173 49.3493 16.5214C48.3291 17.5471 46.9473 18.1276 45.5035 18.1368H44.8455V15.8685C44.8454 15.7898 44.8611 15.7119 44.8915 15.6394C44.9211 15.5654 44.9658 15.4984 45.0227 15.4427C45.0786 15.3867 45.1453 15.3425 45.2186 15.3129C45.292 15.2833 45.3705 15.2679 45.4497 15.2677C46.0996 15.2734 46.7282 15.0353 47.2124 14.6001C47.694 14.1675 47.9942 13.5678 48.0527 12.9217C48.0788 12.5725 48.0323 12.2217 47.9159 11.8916C47.7996 11.5615 47.616 11.2593 47.377 11.0044C47.1371 10.7472 46.8471 10.5424 46.525 10.4026C46.2032 10.2654 45.8571 10.1951 45.5075 10.1961H42.9485V18.8585C42.9486 19.237 42.8739 19.6118 42.7288 19.9611C42.5837 20.3104 42.3712 20.6275 42.1034 20.8939C41.556 21.4374 40.8167 21.7414 40.0469 21.7395Z" fill="#5B41F5"/>
<path d="M74.3281 7.3086V18.8647C74.3289 19.2431 74.4044 19.6177 74.5501 19.9667C74.6958 20.3156 74.909 20.6322 75.1772 20.8981C75.7231 21.4385 76.4592 21.7409 77.2259 21.7397V10.1964C77.2278 9.81696 77.1544 9.44094 77.0099 9.0903C76.8655 8.73966 76.6529 8.42143 76.3847 8.15419C76.1154 7.8855 75.7959 7.67297 75.4445 7.52885C75.0904 7.38268 74.711 7.30784 74.3281 7.3086Z" fill="#5B41F5"/>
<path d="M96.7327 10.1961V13.0957H102.511C102.511 13.4738 102.437 13.8482 102.291 14.197C102.145 14.5468 101.932 14.8642 101.664 15.1311C101.117 15.6721 100.381 15.9755 99.6138 15.9757H96.7327V18.8694H104C103.999 19.2477 103.924 19.622 103.778 19.9709C103.632 20.3197 103.419 20.6361 103.151 20.9018C102.605 21.4415 101.87 21.7441 101.103 21.7444H93.8359V7.30835H104C103.999 7.68663 103.924 8.06101 103.778 8.40984C103.632 8.75868 103.419 9.07507 103.151 9.34072C102.605 9.88082 101.87 10.1835 101.103 10.1834L96.7327 10.1961Z" fill="#5B41F5"/>
<path d="M91.7496 7.30835V21.7395H90.361C89.8954 21.7397 89.4365 21.6285 89.0223 21.415C88.6102 21.2022 88.2551 20.8929 87.9872 20.5134L82.2093 12.3278V18.8645C82.2085 19.2427 82.133 19.6171 81.9873 19.966C81.8416 20.3148 81.6284 20.6312 81.3602 20.8968C80.8142 21.4366 80.0787 21.7392 79.3125 21.7395V7.30835H80.7011C81.1664 7.30895 81.6249 7.42049 82.0389 7.6338C82.4508 7.84687 82.8058 8.15607 83.074 8.53544L88.8519 16.7288V10.1961C88.8506 9.81689 88.9247 9.44118 89.0698 9.09102C89.2149 8.74086 89.4281 8.42329 89.697 8.15689C89.9668 7.88839 90.2865 7.6759 90.6381 7.53155C90.991 7.38676 91.3685 7.31229 91.7496 7.31228" fill="#5B41F5"/>
</svg>
