<svg width="254" height="66" viewBox="0 0 254 66" fill="none" xmlns="http://www.w3.org/2000/svg">
<path d="M64.5142 14.614C62.4053 18.519 58.898 21.5057 54.6786 22.9899C50.4591 24.4742 45.8312 24.349 41.7002 22.639C43.8091 18.734 47.3164 15.7472 51.5358 14.263C55.7553 12.7788 60.3832 12.904 64.5142 14.614Z" fill="#39D86E"/>
<path d="M13.9703 41.2509C15.3846 45.144 18.1433 48.4192 21.7606 50.4998C25.3779 52.5804 29.622 53.3329 33.7456 52.625C37.8691 51.917 41.6078 49.794 44.3032 46.6296C46.9987 43.4652 48.4781 39.4624 48.4811 35.3259V35.214C48.4811 34.9573 48.4811 34.7005 48.4811 34.4504V34.3714C48.3274 32.0914 47.2806 29.9605 45.563 28.4309C43.8453 26.9014 41.5921 26.0937 39.2818 26.1794C36.9714 26.2651 34.7858 27.2374 33.189 28.8898C31.5922 30.5423 30.7099 32.7448 30.7295 35.0297C30.7286 37.3207 29.8232 39.521 28.206 41.1623C26.5888 42.8037 24.3874 43.7566 22.0701 43.8184H21.5706C18.8279 43.7687 16.1699 42.8708 13.9703 41.2509Z" fill="#C336D8"/>
<path d="M21.8238 41.5401C25.4658 41.5401 28.4182 38.6222 28.4182 35.0227C28.4182 31.4232 25.4658 28.5052 21.8238 28.5052C18.1818 28.5052 15.2294 31.4232 15.2294 35.0227C15.2294 38.6222 18.1818 41.5401 21.8238 41.5401Z" fill="#C336D8"/>
<path d="M15.3427 61.5997C8.29795 57.5632 3.15861 50.9324 1.04999 43.1589C-1.05864 35.3855 0.035272 27.1031 4.0922 20.1251C4.94038 18.6793 5.90491 17.3033 6.97643 16.0105L7.02305 15.9513L20.7581 0C22.4581 1.43282 23.5127 3.47426 23.6901 5.67543C23.8675 7.8766 23.1531 10.0573 21.704 11.738L13.4643 21.2969C11.5083 23.6532 10.0677 26.3847 9.23349 29.3189C8.39924 32.2531 8.18942 35.3263 8.61727 38.3447C9.04511 41.363 10.1013 44.261 11.7193 46.8557C13.3372 49.4503 15.4818 51.6854 18.0176 53.4198C20.5534 55.1542 23.4255 56.3503 26.4525 56.9326C29.4795 57.5149 32.5958 57.4708 35.6047 56.8031C38.6136 56.1354 41.4499 54.8585 43.9344 53.053C46.4189 51.2475 48.4978 48.9527 50.04 46.3133C50.6515 45.26 51.175 44.1592 51.6053 43.0217L55.8617 31.1718C56.6214 29.1078 58.1753 27.4241 60.1851 26.487C62.1949 25.5499 64.4978 25.4355 66.5926 26.1685L59.4986 45.9578C57.9283 50.0865 55.4679 53.8281 52.288 56.9228C49.1081 60.0176 45.285 62.3915 41.0838 63.8797C36.8827 65.3679 32.4042 65.9348 27.9592 65.5411C23.5142 65.1474 19.2091 63.8025 15.3427 61.5997Z" fill="#5B41F5"/>
<path d="M177.832 17.7222L167.66 48.0052C167.184 49.4214 166.269 50.6536 165.045 51.5269C163.821 52.4002 162.349 52.8702 160.839 52.8702H159.207L151.141 28.8215L144.7 48.0052C144.222 49.423 143.305 50.6562 142.078 51.5295C140.851 52.4028 139.377 52.872 137.865 52.8702H136.233L124.443 17.7222H126.708C128.218 17.7222 129.69 18.1922 130.914 19.0655C132.138 19.9388 133.053 21.1709 133.529 22.5872L139.657 40.8163L147.417 17.709H149.682C151.195 17.7092 152.67 18.1806 153.897 19.0563C155.124 19.932 156.04 21.1674 156.516 22.5872L162.624 40.8163L168.753 22.574C169.228 21.1578 170.143 19.9256 171.368 19.0523C172.592 18.179 174.064 17.709 175.573 17.709L177.832 17.7222Z" fill="white"/>
<path d="M63.6285 52.8698L75.4319 17.7217H77.0705C78.5832 17.7162 80.0591 18.1829 81.2875 19.0553C82.516 19.9278 83.4343 21.1614 83.9114 22.5802L94.0827 52.8632H91.8113C90.3034 52.8623 88.834 52.3926 87.611 51.5206C86.3881 50.6487 85.4737 49.4187 84.9971 48.0048L78.869 29.7559L72.7408 48.0048C72.2681 49.4216 71.3548 50.6547 70.1311 51.5283C68.9075 52.4019 67.4361 52.8714 65.9266 52.8698H63.6285Z" fill="white"/>
<path d="M97.8062 52.87V17.7746H110.922C112.671 17.7612 114.406 18.0885 116.028 18.7378C117.649 19.3871 119.125 20.3457 120.372 21.5588C121.619 22.772 122.611 24.2159 123.293 25.8082C123.975 27.4005 124.333 29.11 124.347 30.8391C124.361 32.5681 124.029 34.2829 123.372 35.8855C122.715 37.488 121.746 38.947 120.518 40.1791C119.291 41.4112 117.83 42.3923 116.218 43.0664C114.607 43.7404 112.878 44.0943 111.128 44.1077H109.516V38.5909C109.516 38.3993 109.555 38.2095 109.629 38.0326C109.703 37.8556 109.812 37.695 109.95 37.5598C110.087 37.4246 110.25 37.3175 110.43 37.2448C110.609 37.1721 110.801 37.1351 110.995 37.136C112.587 37.1487 114.126 36.5685 115.304 35.5109C116.483 34.4532 117.216 32.9956 117.356 31.4283C117.42 30.5808 117.307 29.7293 117.023 28.9271C116.739 28.1249 116.291 27.3891 115.707 26.7658C115.122 26.1424 114.414 25.6448 113.626 25.3042C112.838 24.9635 111.988 24.787 111.128 24.7858H104.88V45.8522C104.883 46.7723 104.702 47.6839 104.348 48.5348C103.993 49.3857 103.473 50.1592 102.816 50.811C102.159 51.4628 101.378 51.9802 100.518 52.3335C99.6588 52.6868 98.7371 52.8691 97.8062 52.87Z" fill="white"/>
<path d="M181.495 17.7749V45.8789C181.495 46.797 181.678 47.7062 182.034 48.5544C182.389 49.4026 182.91 50.1734 183.567 50.8226C184.224 51.4718 185.004 51.9868 185.862 52.3381C186.72 52.6895 187.64 52.8703 188.569 52.8703V24.7861C188.572 23.8663 188.391 22.955 188.037 22.1045C187.682 21.254 187.162 20.4809 186.504 19.8296C185.847 19.1783 185.067 18.6616 184.207 18.309C183.347 17.9564 182.426 17.7749 181.495 17.7749Z" fill="white"/>
<path d="M236.196 24.7861V31.8368H250.297C250.298 32.7558 250.116 33.6659 249.761 34.5153C249.406 35.3647 248.885 36.1366 248.228 36.787C247.571 37.4375 246.791 37.9537 245.932 38.3062C245.074 38.6586 244.153 38.8405 243.223 38.8414H236.196V45.8789H253.941C253.939 47.7326 253.193 49.5099 251.867 50.8207C250.541 52.1314 248.742 52.8686 246.867 52.8703H229.122V17.7749H253.941C253.939 19.6286 253.193 21.4059 251.867 22.7167C250.541 24.0274 248.742 24.7646 246.867 24.7663L236.196 24.7861Z" fill="white"/>
<path d="M224.026 17.7749V52.8703H220.635C219.498 52.8708 218.377 52.6 217.368 52.0808C216.359 51.5616 215.492 50.8094 214.84 49.8881L200.739 29.9803V45.8789C200.737 47.7326 199.991 49.5099 198.665 50.8207C197.339 52.1314 195.541 52.8686 193.665 52.8703V17.7749H197.055C198.193 17.7755 199.313 18.0468 200.322 18.5659C201.33 19.085 202.198 19.8366 202.85 20.7571L216.952 40.6847V24.7861C216.948 23.8661 217.129 22.9544 217.483 22.1035C217.837 21.2526 218.357 20.4792 219.015 19.8277C219.672 19.1762 220.453 18.6595 221.313 18.3072C222.173 17.9549 223.095 17.774 224.026 17.7749Z" fill="white"/>
</svg>
