<svg width="23" height="10" viewBox="0 0 23 10" fill="none" xmlns="http://www.w3.org/2000/svg">
<path fill-rule="evenodd" clip-rule="evenodd" d="M9.99958 0.00148261C9.99985 0.00121246 10 0.00084606 10 0.000464002C10 -0.0003316 9.99935 -0.000976562 9.99856 -0.000976562H1C0.447715 -0.000976562 0 0.446739 0 0.999024V9.9975C0 9.99834 0.000682234 9.99902 0.00152381 9.99902C0.00192796 9.99902 0.00231555 9.99886 0.00260132 9.99858L9.99958 0.00148261Z" fill="#E54DFC"/>
<path fill-rule="evenodd" clip-rule="evenodd" d="M22.9996 0.0014639C22.9998 0.00119583 23 0.000831984 23 0.000452876C23 -0.000336581 22.9994 -0.000976562 22.9986 -0.000976562H14C13.4477 -0.000976562 13 0.446739 13 0.999024V9.9975C13 9.99834 13.0007 9.99902 13.0015 9.99902C13.0019 9.99902 13.0023 9.99886 13.0026 9.99858L22.9996 0.0014639Z" fill="#E54DFC"/>
</svg>
