<svg width="23" height="10" viewBox="0 0 23 10" fill="none" xmlns="http://www.w3.org/2000/svg">
<path fill-rule="evenodd" clip-rule="evenodd" d="M13.0004 0.00147694C13.0002 0.00120738 13 0.000842055 13 0.000460837C13 -0.000333017 13.0006 -0.000976562 13.0014 -0.000976562H22C22.5523 -0.000976562 23 0.446739 23 0.999024V9.99749C23 9.99834 22.9993 9.99902 22.9985 9.99902C22.9981 9.99902 22.9977 9.99886 22.9974 9.99857L13.0004 0.00147694Z" fill="#E54DFC"/>
<path fill-rule="evenodd" clip-rule="evenodd" d="M0.00042057 0.00147694C0.000150681 0.00120738 0 0.000842055 0 0.000460837C0 -0.000333017 0.000642776 -0.000976562 0.00143719 -0.000976562H9C9.55228 -0.000976562 10 0.446739 10 0.999024V9.99749C10 9.99834 9.99931 9.99902 9.99847 9.99902C9.99806 9.99902 9.99767 9.99886 9.99738 9.99857L0.00042057 0.00147694Z" fill="#E54DFC"/>
</svg>
