<svg width="74" height="52" viewBox="0 0 74 52" fill="none" xmlns="http://www.w3.org/2000/svg">
<path d="M52.9928 24.3973C43.1816 24.3973 34.9947 20.8241 33.0551 16.0691C32.7647 16.7695 32.611 17.4947 32.611 18.2369C32.611 24.037 41.7343 28.7408 52.9928 28.7408C64.2467 28.7408 73.3731 24.0386 73.3731 18.2369C73.3731 17.4931 73.2116 16.7695 72.9306 16.0691C70.9848 20.8241 62.7979 24.3973 52.9928 24.3973Z" fill="#5B41F5"/>
<path d="M52.9928 31.9419C43.1816 31.9419 34.9947 28.3671 33.0551 23.6152C32.7647 24.3156 32.611 25.0408 32.611 25.7862C32.611 31.5832 41.7343 36.2869 52.9928 36.2869C64.2467 36.2869 73.3731 31.5847 73.3731 25.7862C73.3731 25.0408 73.2116 24.3156 72.9306 23.6152C70.9848 28.3687 62.7979 31.9419 52.9928 31.9419Z" fill="#5B41F5"/>
<path d="M52.9928 39.7262C43.1816 39.7262 34.9947 36.156 33.0551 31.3979C32.7647 32.0983 32.611 32.8251 32.611 33.5689C32.611 39.369 41.7343 44.0696 52.9928 44.0696C64.2467 44.0696 73.3731 39.3706 73.3731 33.5689C73.3731 32.8251 73.2116 32.0983 72.9306 31.3979C70.9848 36.156 62.7979 39.7262 52.9928 39.7262Z" fill="#5B41F5"/>
<path d="M52.9929 21.0015C64.2486 21.0015 73.3732 16.3001 73.3732 10.5007C73.3732 4.70134 64.2486 0 52.9929 0C41.7371 0 32.6126 4.70134 32.6126 10.5007C32.6126 16.3001 41.7371 21.0015 52.9929 21.0015Z" fill="#5B41F5"/>
<path d="M52.9928 47.1507C43.1816 47.1507 34.9947 43.5806 33.0551 38.8225C32.7647 39.5229 32.611 40.2496 32.611 40.9935C32.611 46.7936 41.7343 51.4942 52.9928 51.4942C64.2467 51.4942 73.3731 46.7951 73.3731 40.9935C73.3731 40.2496 73.2116 39.5229 72.9306 38.8225C70.9848 43.5806 62.7979 47.1507 52.9928 47.1507Z" fill="#5B41F5"/>
<path fill-rule="evenodd" clip-rule="evenodd" d="M29.4042 8.8471C26.6845 8.1541 23.6214 7.76465 20.3818 7.76465C9.12609 7.76465 0.00151452 12.466 0.00151452 18.2654C0.00151452 24.0648 9.12609 28.7661 20.3818 28.7661C23.6214 28.7661 26.6845 28.3767 29.4042 27.6837V8.8471ZM29.4042 31.0781C26.6846 31.772 23.6216 32.1621 20.3819 32.1621C10.5706 32.1621 2.38371 28.5889 0.44413 23.8339C0.153737 24.5342 0 25.2594 0 26.0017C0 31.8018 9.12331 36.5056 20.3819 36.5056C23.6212 36.5056 26.6843 36.116 29.4042 35.4227V31.0781ZM29.4042 38.6227C26.6846 39.3166 23.6216 39.7067 20.3819 39.7067C10.5706 39.7067 2.38371 36.1319 0.44413 31.38C0.153737 32.0804 0 32.8056 0 33.551C0 39.348 9.12331 44.0517 20.3819 44.0517C23.6212 44.0517 26.6843 43.6621 29.4042 42.9689V38.6227Z" fill="#5B41F5"/>
</svg>
