<svg width="64" height="64" viewBox="0 0 64 64" fill="none" xmlns="http://www.w3.org/2000/svg">
<path d="M48.875 62C48.875 58.8934 46.3566 56.375 43.25 56.375H20.75C17.6434 56.375 15.125 58.8934 15.125 62V64H48.875V62Z" fill="#5B41F5"/>
<path d="M60.25 15.125V11.375H37.2796C36.7131 9.7865 35.4635 8.53687 33.875 7.97038V0H30.125V7.97038C28.5365 8.53687 27.2869 9.7865 26.7204 11.375H3.75V15.125H8.438L0 35.75C0 40.9191 4.20587 45.125 9.375 45.125H13.125C18.2941 45.125 22.5 40.9191 22.5 35.75L14.0239 15.125H26.7205C27.287 16.7135 28.5366 17.9631 30.1251 18.5296V45.3305C26.4608 46.0804 23.562 48.9593 22.8149 52.625H41.1854C40.4383 48.9593 37.5395 46.0804 33.8751 45.3305V18.5296C35.4636 17.9631 36.7132 16.7135 37.2798 15.125H49.9381L41.5 35.75C41.5 40.9191 45.7059 45.125 50.875 45.125H54.625C59.7941 45.125 64 40.9191 64 35.75L55.5239 15.125H60.25ZM17.812 33.875H4.688L11.25 18.1243L17.812 33.875ZM59.312 33.875H46.188L52.75 18.1243L59.312 33.875Z" fill="#5B41F5"/>
</svg>
