<svg width="536" height="314" viewBox="0 0 536 314" fill="none" xmlns="http://www.w3.org/2000/svg">
<g filter="url(#filter0_d)">
<rect x="258" y="23" width="235" height="228" rx="10.7181" fill="#17142A"/>
<rect x="258.335" y="23.3349" width="234.33" height="227.33" rx="10.3831" stroke="#4732C5" stroke-width="0.669879"/>
</g>
<path d="M305.643 159.851C305.53 160.817 305.172 161.564 304.57 162.091C303.972 162.614 303.175 162.876 302.179 162.876C301.1 162.876 300.234 162.489 299.581 161.715C298.933 160.941 298.609 159.905 298.609 158.608V157.73C298.609 156.881 298.759 156.134 299.06 155.49C299.366 154.845 299.797 154.352 300.353 154.009C300.909 153.661 301.554 153.488 302.286 153.488C303.256 153.488 304.035 153.76 304.62 154.304C305.206 154.843 305.547 155.592 305.643 156.55H304.432C304.327 155.822 304.099 155.295 303.748 154.969C303.401 154.642 302.913 154.479 302.286 154.479C301.516 154.479 300.912 154.764 300.472 155.333C300.037 155.902 299.82 156.711 299.82 157.761V158.646C299.82 159.638 300.027 160.426 300.441 161.012C300.855 161.597 301.435 161.89 302.179 161.89C302.849 161.89 303.361 161.74 303.717 161.438C304.076 161.133 304.315 160.604 304.432 159.851H305.643ZM308.373 162.75H307.212V153.111H308.373V162.75ZM314.428 162.75C314.361 162.616 314.307 162.378 314.265 162.035C313.725 162.595 313.081 162.876 312.332 162.876C311.663 162.876 311.113 162.687 310.682 162.311C310.255 161.93 310.042 161.449 310.042 160.867C310.042 160.16 310.31 159.612 310.845 159.223C311.385 158.83 312.142 158.633 313.117 158.633H314.246V158.1C314.246 157.694 314.125 157.372 313.882 157.134C313.64 156.891 313.282 156.77 312.809 156.77C312.395 156.77 312.048 156.874 311.768 157.084C311.487 157.293 311.347 157.546 311.347 157.843H310.18C310.18 157.504 310.299 157.178 310.538 156.864C310.78 156.546 311.107 156.295 311.517 156.111C311.931 155.927 312.385 155.835 312.878 155.835C313.661 155.835 314.274 156.031 314.717 156.425C315.16 156.814 315.391 157.351 315.407 158.037V161.162C315.407 161.786 315.487 162.281 315.646 162.65V162.75H314.428ZM312.502 161.865C312.866 161.865 313.211 161.771 313.537 161.583C313.864 161.395 314.1 161.15 314.246 160.849V159.456H313.336C311.914 159.456 311.203 159.872 311.203 160.704C311.203 161.068 311.324 161.353 311.567 161.558C311.809 161.763 312.121 161.865 312.502 161.865ZM318.488 162.75H317.327V155.96H318.488V162.75ZM317.233 154.159C317.233 153.971 317.29 153.812 317.403 153.682C317.52 153.553 317.691 153.488 317.917 153.488C318.143 153.488 318.315 153.553 318.432 153.682C318.549 153.812 318.608 153.971 318.608 154.159C318.608 154.348 318.549 154.504 318.432 154.63C318.315 154.755 318.143 154.818 317.917 154.818C317.691 154.818 317.52 154.755 317.403 154.63C317.29 154.504 317.233 154.348 317.233 154.159ZM321.444 155.96L321.475 156.713C321.973 156.128 322.645 155.835 323.49 155.835C324.439 155.835 325.086 156.199 325.429 156.927C325.655 156.6 325.947 156.337 326.307 156.136C326.671 155.935 327.1 155.835 327.594 155.835C329.083 155.835 329.84 156.623 329.865 158.2V162.75H328.704V158.27C328.704 157.784 328.593 157.422 328.372 157.184C328.15 156.941 327.778 156.82 327.255 156.82C326.824 156.82 326.466 156.95 326.182 157.209C325.897 157.464 325.732 157.809 325.686 158.244V162.75H324.519V158.301C324.519 157.314 324.036 156.82 323.069 156.82C322.308 156.82 321.787 157.144 321.507 157.793V162.75H320.346V155.96H321.444ZM337.032 161.049L338.613 155.96H339.855L337.126 163.798C336.703 164.927 336.032 165.492 335.111 165.492L334.892 165.473L334.459 165.392V164.451L334.772 164.476C335.166 164.476 335.471 164.396 335.689 164.237C335.91 164.078 336.092 163.787 336.235 163.365L336.492 162.675L334.07 155.96H335.337L337.032 161.049ZM340.489 159.292C340.489 158.627 340.619 158.029 340.878 157.498C341.142 156.966 341.506 156.556 341.97 156.268C342.439 155.979 342.972 155.835 343.57 155.835C344.495 155.835 345.242 156.155 345.81 156.795C346.384 157.435 346.67 158.286 346.67 159.349V159.43C346.67 160.091 346.543 160.685 346.287 161.213C346.036 161.736 345.675 162.143 345.202 162.436C344.733 162.729 344.194 162.876 343.583 162.876C342.662 162.876 341.916 162.555 341.343 161.915C340.774 161.275 340.489 160.428 340.489 159.374V159.292ZM341.656 159.43C341.656 160.183 341.83 160.788 342.177 161.244C342.529 161.7 342.997 161.928 343.583 161.928C344.173 161.928 344.641 161.698 344.988 161.238C345.336 160.773 345.509 160.125 345.509 159.292C345.509 158.548 345.331 157.945 344.976 157.485C344.624 157.021 344.156 156.789 343.57 156.789C342.997 156.789 342.535 157.017 342.183 157.473C341.832 157.929 341.656 158.581 341.656 159.43ZM352.318 162.079C351.866 162.61 351.203 162.876 350.329 162.876C349.605 162.876 349.053 162.666 348.672 162.248C348.295 161.825 348.105 161.202 348.101 160.378V155.96H349.262V160.347C349.262 161.376 349.68 161.89 350.517 161.89C351.404 161.89 351.994 161.56 352.286 160.899V155.96H353.447V162.75H352.343L352.318 162.079ZM358.499 157.002C358.323 156.973 358.133 156.958 357.928 156.958C357.166 156.958 356.65 157.282 356.378 157.931V162.75H355.217V155.96H356.346L356.365 156.745C356.746 156.138 357.286 155.835 357.984 155.835C358.21 155.835 358.382 155.864 358.499 155.923V157.002ZM364.981 161.049L366.562 155.96H367.805L365.075 163.798C364.653 164.927 363.981 165.492 363.061 165.492L362.841 165.473L362.408 165.392V164.451L362.722 164.476C363.115 164.476 363.421 164.396 363.638 164.237C363.86 164.078 364.042 163.787 364.184 163.365L364.441 162.675L362.019 155.96H363.287L364.981 161.049ZM370.108 162.75H368.947V155.96H370.108V162.75ZM368.853 154.159C368.853 153.971 368.909 153.812 369.022 153.682C369.139 153.553 369.311 153.488 369.537 153.488C369.763 153.488 369.934 153.553 370.051 153.682C370.169 153.812 370.227 153.971 370.227 154.159C370.227 154.348 370.169 154.504 370.051 154.63C369.934 154.755 369.763 154.818 369.537 154.818C369.311 154.818 369.139 154.755 369.022 154.63C368.909 154.504 368.853 154.348 368.853 154.159ZM374.789 162.876C373.869 162.876 373.12 162.574 372.543 161.972C371.965 161.365 371.677 160.556 371.677 159.543V159.33C371.677 158.656 371.804 158.056 372.06 157.529C372.319 156.998 372.679 156.584 373.139 156.287C373.603 155.985 374.105 155.835 374.645 155.835C375.528 155.835 376.214 156.126 376.703 156.707C377.193 157.289 377.437 158.121 377.437 159.205V159.688H372.838C372.854 160.357 373.049 160.899 373.421 161.313C373.798 161.723 374.275 161.928 374.852 161.928C375.262 161.928 375.609 161.844 375.894 161.677C376.178 161.51 376.427 161.288 376.64 161.012L377.35 161.564C376.781 162.438 375.927 162.876 374.789 162.876ZM374.645 156.789C374.176 156.789 373.783 156.96 373.465 157.303C373.147 157.642 372.951 158.119 372.875 158.734H376.276V158.646C376.243 158.056 376.084 157.6 375.8 157.278C375.515 156.952 375.13 156.789 374.645 156.789ZM380.048 162.75H378.887V153.111H380.048V162.75ZM381.629 159.299C381.629 158.257 381.876 157.42 382.37 156.789C382.863 156.153 383.51 155.835 384.309 155.835C385.104 155.835 385.733 156.107 386.198 156.651V153.111H387.358V162.75H386.292L386.235 162.022C385.771 162.591 385.124 162.876 384.296 162.876C383.51 162.876 382.867 162.553 382.37 161.909C381.876 161.265 381.629 160.424 381.629 159.387V159.299ZM382.79 159.43C382.79 160.2 382.949 160.803 383.267 161.238C383.585 161.673 384.024 161.89 384.585 161.89C385.321 161.89 385.859 161.56 386.198 160.899V157.78C385.85 157.14 385.317 156.82 384.597 156.82C384.028 156.82 383.585 157.04 383.267 157.479C382.949 157.918 382.79 158.569 382.79 159.43ZM396.545 162.75C396.478 162.616 396.424 162.378 396.382 162.035C395.842 162.595 395.198 162.876 394.449 162.876C393.78 162.876 393.23 162.687 392.799 162.311C392.372 161.93 392.159 161.449 392.159 160.867C392.159 160.16 392.427 159.612 392.962 159.223C393.502 158.83 394.259 158.633 395.234 158.633H396.363V158.1C396.363 157.694 396.242 157.372 395.999 157.134C395.757 156.891 395.399 156.77 394.926 156.77C394.512 156.77 394.165 156.874 393.885 157.084C393.604 157.293 393.464 157.546 393.464 157.843H392.297C392.297 157.504 392.416 157.178 392.655 156.864C392.897 156.546 393.224 156.295 393.634 156.111C394.048 155.927 394.502 155.835 394.995 155.835C395.778 155.835 396.39 156.031 396.834 156.425C397.277 156.814 397.507 157.351 397.524 158.037V161.162C397.524 161.786 397.604 162.281 397.763 162.65V162.75H396.545ZM394.619 161.865C394.983 161.865 395.328 161.771 395.654 161.583C395.981 161.395 396.217 161.15 396.363 160.849V159.456H395.453C394.031 159.456 393.32 159.872 393.32 160.704C393.32 161.068 393.441 161.353 393.684 161.558C393.926 161.763 394.238 161.865 394.619 161.865ZM400.919 154.316V155.96H402.187V156.858H400.919V161.068C400.919 161.34 400.976 161.545 401.089 161.683C401.201 161.817 401.394 161.884 401.666 161.884C401.8 161.884 401.984 161.859 402.218 161.809V162.75C401.913 162.834 401.616 162.876 401.327 162.876C400.808 162.876 400.417 162.719 400.154 162.405C399.89 162.091 399.758 161.646 399.758 161.068V156.858H398.522V155.96H399.758V154.316H400.919ZM407.828 155.96L407.859 156.713C408.357 156.128 409.029 155.835 409.874 155.835C410.823 155.835 411.47 156.199 411.813 156.927C412.039 156.6 412.332 156.337 412.691 156.136C413.055 155.935 413.484 155.835 413.978 155.835C415.467 155.835 416.224 156.623 416.249 158.2V162.75H415.088V158.27C415.088 157.784 414.978 157.422 414.756 157.184C414.534 156.941 414.162 156.82 413.639 156.82C413.208 156.82 412.85 156.95 412.566 157.209C412.281 157.464 412.116 157.809 412.07 158.244V162.75H410.903V158.301C410.903 157.314 410.42 156.82 409.453 156.82C408.692 156.82 408.171 157.144 407.891 157.793V162.75H406.73V155.96H407.828ZM422.198 162.75C422.131 162.616 422.077 162.378 422.035 162.035C421.495 162.595 420.851 162.876 420.102 162.876C419.433 162.876 418.883 162.687 418.452 162.311C418.025 161.93 417.812 161.449 417.812 160.867C417.812 160.16 418.08 159.612 418.615 159.223C419.155 158.83 419.912 158.633 420.887 158.633H422.016V158.1C422.016 157.694 421.895 157.372 421.652 157.134C421.41 156.891 421.052 156.77 420.579 156.77C420.165 156.77 419.818 156.874 419.538 157.084C419.257 157.293 419.117 157.546 419.117 157.843H417.95C417.95 157.504 418.069 157.178 418.308 156.864C418.55 156.546 418.877 156.295 419.287 156.111C419.701 155.927 420.155 155.835 420.648 155.835C421.431 155.835 422.043 156.031 422.487 156.425C422.93 156.814 423.16 157.351 423.177 158.037V161.162C423.177 161.786 423.257 162.281 423.416 162.65V162.75H422.198ZM420.272 161.865C420.636 161.865 420.981 161.771 421.307 161.583C421.633 161.395 421.87 161.15 422.016 160.849V159.456H421.106C419.684 159.456 418.973 159.872 418.973 160.704C418.973 161.068 419.094 161.353 419.337 161.558C419.579 161.763 419.891 161.865 420.272 161.865ZM426.572 154.316V155.96H427.84V156.858H426.572V161.068C426.572 161.34 426.628 161.545 426.741 161.683C426.854 161.817 427.047 161.884 427.319 161.884C427.453 161.884 427.637 161.859 427.871 161.809V162.75C427.566 162.834 427.269 162.876 426.98 162.876C426.461 162.876 426.07 162.719 425.806 162.405C425.543 162.091 425.411 161.646 425.411 161.068V156.858H424.175V155.96H425.411V154.316H426.572ZM433.393 162.079C432.941 162.61 432.278 162.876 431.404 162.876C430.68 162.876 430.128 162.666 429.747 162.248C429.371 161.825 429.18 161.202 429.176 160.378V155.96H430.337V160.347C430.337 161.376 430.755 161.89 431.592 161.89C432.479 161.89 433.069 161.56 433.362 160.899V155.96H434.523V162.75H433.418L433.393 162.079ZM439.574 157.002C439.398 156.973 439.208 156.958 439.003 156.958C438.242 156.958 437.725 157.282 437.453 157.931V162.75H436.292V155.96H437.422L437.441 156.745C437.821 156.138 438.361 155.835 439.06 155.835C439.286 155.835 439.457 155.864 439.574 155.923V157.002ZM441.909 162.75H440.748V155.96H441.909V162.75ZM440.654 154.159C440.654 153.971 440.71 153.812 440.823 153.682C440.94 153.553 441.112 153.488 441.338 153.488C441.563 153.488 441.735 153.553 441.852 153.682C441.969 153.812 442.028 153.971 442.028 154.159C442.028 154.348 441.969 154.504 441.852 154.63C441.735 154.755 441.563 154.818 441.338 154.818C441.112 154.818 440.94 154.755 440.823 154.63C440.71 154.504 440.654 154.348 440.654 154.159ZM445.347 154.316V155.96H446.615V156.858H445.347V161.068C445.347 161.34 445.404 161.545 445.517 161.683C445.63 161.817 445.822 161.884 446.094 161.884C446.228 161.884 446.412 161.859 446.646 161.809V162.75C446.341 162.834 446.044 162.876 445.755 162.876C445.236 162.876 444.845 162.719 444.582 162.405C444.318 162.091 444.186 161.646 444.186 161.068V156.858H442.95V155.96H444.186V154.316H445.347ZM450.198 161.049L451.779 155.96H453.022L450.292 163.798C449.87 164.927 449.198 165.492 448.278 165.492L448.058 165.473L447.625 165.392V164.451L447.939 164.476C448.332 164.476 448.638 164.396 448.855 164.237C449.077 164.078 449.259 163.787 449.401 163.365L449.658 162.675L447.236 155.96H448.504L450.198 161.049Z" fill="white"/>
<path d="M348.025 95.5373C346.7 98.0404 344.049 99.7484 341.016 99.7484C339.927 99.7484 338.896 99.5422 337.924 99.13C339.249 96.6269 341.9 94.9189 344.933 94.9189C346.022 94.9189 347.083 95.1251 348.025 95.5373Z" fill="#39D86E"/>
<path d="M325.674 107.464C326.764 110.497 329.679 112.647 333.065 112.647C337.394 112.647 340.928 109.142 340.928 104.784C340.928 104.755 340.928 104.755 340.928 104.725C340.928 104.607 340.928 104.49 340.928 104.372V104.342C340.781 102.31 339.073 100.72 337.011 100.72C336.187 100.72 335.451 100.956 334.832 101.398C333.772 102.104 333.095 103.312 333.095 104.666C333.095 106.786 331.387 108.524 329.267 108.583C329.237 108.583 329.178 108.583 329.149 108.583C329.119 108.583 329.061 108.583 329.031 108.583C327.765 108.583 326.616 108.141 325.674 107.464Z" fill="#C336D8"/>
<path d="M329.149 107.582C330.759 107.582 332.064 106.276 332.064 104.666C332.064 103.056 330.759 101.751 329.149 101.751C327.539 101.751 326.234 103.056 326.234 104.666C326.234 106.276 327.539 107.582 329.149 107.582Z" fill="#C336D8"/>
<path d="M326.293 116.563C319.814 112.823 317.576 104.489 321.316 98.011C321.699 97.3631 322.111 96.7447 322.582 96.1558L322.612 96.1263L328.678 89C330.239 90.3251 330.445 92.681 329.09 94.2417L325.439 98.5116C325.085 98.9239 324.791 99.3656 324.526 99.8368C321.816 104.548 323.436 110.585 328.148 113.324C332.859 116.062 338.896 114.413 341.635 109.702C341.9 109.231 342.135 108.73 342.312 108.259L344.197 102.958C344.874 101.015 347.024 100.013 348.938 100.691L345.816 109.554C345.551 110.261 345.227 110.939 344.845 111.586C341.105 118.065 332.771 120.303 326.293 116.563Z" fill="#5B41F5"/>
<path d="M398.115 96.9214L393.61 110.467C393.168 111.763 391.961 112.646 390.606 112.646H389.9L386.336 101.898L383.48 110.467C383.038 111.763 381.831 112.646 380.476 112.646H379.769L374.557 96.9214H375.558C376.913 96.9214 378.15 97.8048 378.562 99.1005L381.271 107.258L384.717 96.9214H385.718C387.073 96.9214 388.309 97.8048 388.722 99.1005L391.431 107.258L394.14 99.1005C394.582 97.8048 395.789 96.9214 397.144 96.9214H398.115Z" fill="white"/>
<path d="M347.613 112.646L352.825 96.9214H353.561C354.916 96.9214 356.153 97.8048 356.565 99.1005L361.07 112.646H360.069C358.714 112.646 357.478 111.763 357.065 110.467L354.356 102.31L351.647 110.467C351.205 111.763 349.998 112.646 348.643 112.646H347.613Z" fill="white"/>
<path d="M362.749 112.646V96.9507H368.55C371.789 96.9507 374.469 99.5126 374.528 102.752C374.557 106.05 371.907 108.73 368.638 108.73H367.932V106.256C367.932 105.903 368.226 105.608 368.579 105.608C370.022 105.608 371.289 104.519 371.406 103.046C371.524 101.427 370.258 100.072 368.638 100.072H365.87V109.495C365.87 111.262 364.457 112.646 362.749 112.646Z" fill="white"/>
<path d="M399.735 96.9507V109.525C399.735 111.262 401.148 112.646 402.856 112.646V100.072C402.856 98.3642 401.472 96.9507 399.735 96.9507Z" fill="white"/>
<path d="M423.912 100.072V103.223H430.155C430.155 104.96 428.741 106.344 427.033 106.344H423.941V109.495H431.774C431.774 111.233 430.361 112.617 428.653 112.617H420.79V96.9507H431.774C431.774 98.6881 430.361 100.072 428.653 100.072H423.912Z" fill="white"/>
<path d="M418.523 96.9507V112.646H417.021C415.99 112.646 415.048 112.146 414.459 111.321L408.216 102.428V109.525C408.216 111.262 406.802 112.646 405.094 112.646V96.9507H406.596C407.627 96.9507 408.569 97.4513 409.158 98.2758L415.401 107.169V100.072C415.401 98.3642 416.815 96.9507 418.523 96.9507Z" fill="white"/>
<path d="M103.781 95.8866L232.297 95.8866" stroke="url(#paint0_linear)" stroke-width="0.917969"/>
<path d="M239.641 95.8866L232.297 90.3788V101.394L239.641 95.8866Z" fill="#5B41F5"/>
<path d="M258 178.504L129.484 178.504" stroke="url(#paint1_linear)" stroke-width="0.917969"/>
<path d="M122.141 178.504L129.484 172.996V184.012L122.141 178.504Z" fill="#5B41F5"/>
<g filter="url(#filter1_d)">
<rect x="146.008" y="64.6757" width="62.4219" height="62.4219" rx="14.6875" fill="#17142A"/>
<rect x="146.467" y="65.1346" width="61.5039" height="61.5039" rx="14.2285" stroke="#4732C5" stroke-width="0.917969"/>
</g>
<path d="M177.393 88.2776C171.593 88.2776 166.754 86.1653 165.607 83.3545C165.436 83.7685 165.345 84.1972 165.345 84.636C165.345 88.0646 170.738 90.8451 177.393 90.8451C184.046 90.8451 189.441 88.0655 189.441 84.636C189.441 84.1963 189.345 83.7685 189.179 83.3545C188.029 86.1653 183.189 88.2776 177.393 88.2776Z" fill="#5B41F5"/>
<path d="M177.393 92.7371C171.593 92.7371 166.754 90.6239 165.607 87.8149C165.436 88.2289 165.345 88.6576 165.345 89.0983C165.345 92.525 170.738 95.3056 177.393 95.3056C184.046 95.3056 189.441 92.526 189.441 89.0983C189.441 88.6576 189.345 88.2289 189.179 87.8149C188.029 90.6248 183.189 92.7371 177.393 92.7371Z" fill="#5B41F5"/>
<path d="M177.393 97.3387C171.593 97.3387 166.754 95.2283 165.607 92.4156C165.436 92.8297 165.345 93.2593 165.345 93.699C165.345 97.1276 170.738 99.9063 177.393 99.9063C184.046 99.9063 189.441 97.1285 189.441 93.699C189.441 93.2593 189.345 92.8297 189.179 92.4156C188.029 95.2283 183.189 97.3387 177.393 97.3387Z" fill="#5B41F5"/>
<path d="M177.393 86.27C184.047 86.27 189.441 83.4909 189.441 80.0627C189.441 76.6345 184.047 73.8553 177.393 73.8553C170.74 73.8553 165.346 76.6345 165.346 80.0627C165.346 83.4909 170.74 86.27 177.393 86.27Z" fill="#5B41F5"/>
<path d="M165.78 113.102L166.659 108.458H167.999L166.551 114.984H165.197L164.135 110.619L163.073 114.984H161.719L160.271 108.458H161.611L162.494 113.093L163.57 108.458H164.709L165.78 113.102ZM171.737 114.984H170.442V109.991L168.895 110.471V109.417L171.598 108.449H171.737V114.984ZM177.685 113.64H175.327L174.879 114.984H173.449L175.879 108.458H177.125L179.567 114.984H178.138L177.685 113.64ZM175.69 112.55H177.322L176.502 110.108L175.69 112.55ZM180.177 114.984V108.458H182.185C182.759 108.458 183.271 108.588 183.723 108.848C184.177 109.105 184.531 109.473 184.785 109.951C185.039 110.426 185.166 110.967 185.166 111.573V111.874C185.166 112.48 185.04 113.02 184.789 113.492C184.541 113.964 184.19 114.33 183.736 114.59C183.282 114.85 182.769 114.981 182.199 114.984H180.177ZM181.522 109.547V113.904H182.172C182.698 113.904 183.099 113.732 183.377 113.389C183.655 113.045 183.797 112.553 183.803 111.914V111.569C183.803 110.905 183.666 110.403 183.391 110.063C183.116 109.719 182.714 109.547 182.185 109.547H181.522ZM189.733 113.64H187.376L186.927 114.984H185.498L187.927 108.458H189.173L191.616 114.984H190.186L189.733 113.64ZM187.739 112.55H189.37L188.55 110.108L187.739 112.55ZM193.655 114.984H192.311V108.458H193.655V114.984Z" fill="white"/>
<g filter="url(#filter2_d)">
<rect x="146.008" y="147.293" width="62.4219" height="62.4219" rx="14.6875" fill="#17142A"/>
<rect x="146.467" y="147.752" width="61.5039" height="61.5039" rx="14.2285" stroke="#4732C5" stroke-width="0.917969"/>
</g>
<path d="M171.492 196.257H169.135L168.686 197.601H167.256L169.686 191.075H170.932L173.375 197.601H171.945L171.492 196.257ZM169.498 195.168H171.129L170.309 192.725L169.498 195.168ZM173.984 197.601V191.075H175.992C176.566 191.075 177.079 191.205 177.53 191.465C177.984 191.722 178.338 192.09 178.592 192.568C178.846 193.043 178.973 193.584 178.973 194.19V194.491C178.973 195.097 178.848 195.637 178.597 196.109C178.349 196.581 177.997 196.947 177.543 197.207C177.089 197.467 176.577 197.598 176.006 197.601H173.984ZM175.329 192.164V196.521H175.979C176.505 196.521 176.907 196.349 177.185 196.006C177.463 195.662 177.605 195.171 177.611 194.531V194.186C177.611 193.523 177.473 193.021 177.198 192.68C176.923 192.336 176.521 192.164 175.992 192.164H175.329ZM183.541 196.257H181.183L180.735 197.601H179.305L181.734 191.075H182.98L185.423 197.601H183.993L183.541 196.257ZM181.546 195.168H183.177L182.357 192.725L181.546 195.168ZM187.463 197.601H186.118V191.075H187.463V197.601Z" fill="white"/>
<path d="M186.513 170.895C180.713 170.895 175.874 168.783 174.727 165.972C174.556 166.386 174.465 166.814 174.465 167.253C174.465 170.682 179.858 173.462 186.513 173.462C193.166 173.462 198.561 170.683 198.561 167.253C198.561 166.813 198.465 166.386 198.299 165.972C197.149 168.783 192.309 170.895 186.513 170.895Z" fill="#5B41F5"/>
<path d="M186.513 175.354C180.713 175.354 175.874 173.241 174.727 170.432C174.556 170.846 174.465 171.275 174.465 171.715C174.465 175.142 179.858 177.923 186.513 177.923C193.166 177.923 198.561 175.143 198.561 171.715C198.561 171.275 198.465 170.846 198.299 170.432C197.149 173.242 192.309 175.354 186.513 175.354Z" fill="#5B41F5"/>
<path d="M186.513 179.956C180.713 179.956 175.874 177.845 174.727 175.033C174.556 175.447 174.465 175.876 174.465 176.316C174.465 179.745 179.858 182.523 186.513 182.523C193.166 182.523 198.561 179.746 198.561 176.316C198.561 175.876 198.465 175.447 198.299 175.033C197.149 177.845 192.309 179.956 186.513 179.956Z" fill="#5B41F5"/>
<path d="M186.513 168.887C193.167 168.887 198.561 166.108 198.561 162.68C198.561 159.252 193.167 156.473 186.513 156.473C179.86 156.473 174.466 159.252 174.466 162.68C174.466 166.108 179.86 168.887 186.513 168.887Z" fill="#5B41F5"/>
<path d="M186.513 184.345C180.713 184.345 175.874 182.234 174.727 179.422C174.556 179.836 174.465 180.265 174.465 180.705C174.465 184.134 179.858 186.912 186.513 186.912C193.166 186.912 198.561 184.135 198.561 180.705C198.561 180.265 198.465 179.836 198.299 179.422C197.149 182.234 192.309 184.345 186.513 184.345Z" fill="#5B41F5"/>
<path fill-rule="evenodd" clip-rule="evenodd" d="M172.569 161.702C170.962 161.293 169.151 161.062 167.236 161.062C160.582 161.062 155.189 163.841 155.189 167.27C155.189 170.698 160.582 173.477 167.236 173.477C169.151 173.477 170.962 173.247 172.569 172.837V161.702ZM172.569 174.844C170.962 175.254 169.151 175.485 167.236 175.485C161.436 175.485 156.597 173.372 155.45 170.561C155.278 170.975 155.188 171.404 155.188 171.843C155.188 175.272 160.581 178.052 167.236 178.052C169.151 178.052 170.961 177.822 172.569 177.412V174.844ZM172.569 179.303C170.962 179.714 169.151 179.944 167.236 179.944C161.436 179.944 156.597 177.831 155.45 175.022C155.278 175.436 155.188 175.865 155.188 176.305C155.188 179.732 160.581 182.513 167.236 182.513C169.151 182.513 170.961 182.282 172.569 181.873V179.303Z" fill="#5B41F5"/>
<g filter="url(#filter3_d)">
<rect x="23" y="64.6757" width="80.7812" height="145.039" rx="14.6875" fill="#17142A"/>
<rect x="23.459" y="65.1346" width="79.8633" height="144.121" rx="14.2285" stroke="#4732C5" stroke-width="0.917969"/>
</g>
<path d="M54.7999 157.656H51.4992L50.8716 159.539H48.8699L52.271 150.402H54.0155L57.4355 159.539H55.4337L54.7999 157.656ZM52.0075 156.132H54.2916L53.1433 152.712L52.0075 156.132ZM60.0836 159.539H58.2638V149.9H60.0836V159.539ZM63.4973 159.539H61.6775V152.749H63.4973V159.539ZM61.5708 150.992C61.5708 150.72 61.6608 150.496 61.8407 150.321C62.0247 150.145 62.2736 150.057 62.5874 150.057C62.897 150.057 63.1438 150.145 63.3279 150.321C63.5119 150.496 63.604 150.72 63.604 150.992C63.604 151.268 63.5099 151.494 63.3216 151.67C63.1375 151.846 62.8928 151.933 62.5874 151.933C62.282 151.933 62.0352 151.846 61.8469 151.67C61.6629 151.494 61.5708 151.268 61.5708 150.992ZM67.8209 158.202C68.1556 158.202 68.4275 158.11 68.6367 157.926C68.8458 157.742 68.9546 157.497 68.963 157.192H70.6636C70.6594 157.652 70.5339 158.075 70.287 158.46C70.0402 158.84 69.7014 159.137 69.2705 159.351C68.8438 159.56 68.371 159.664 67.8523 159.664C66.8817 159.664 66.1161 159.357 65.5556 158.742C64.995 158.123 64.7147 157.269 64.7147 156.182V156.062C64.7147 155.017 64.9929 154.182 65.5493 153.559C66.1057 152.935 66.8692 152.624 67.8397 152.624C68.689 152.624 69.3688 152.866 69.8792 153.352C70.3937 153.833 70.6552 154.475 70.6636 155.278H68.963C68.9546 154.927 68.8458 154.642 68.6367 154.425C68.4275 154.203 68.1514 154.092 67.8083 154.092C67.3858 154.092 67.0658 154.247 66.8482 154.556C66.6349 154.862 66.5282 155.36 66.5282 156.05V156.238C66.5282 156.937 66.6349 157.439 66.8482 157.744C67.0616 158.05 67.3858 158.202 67.8209 158.202ZM74.824 159.664C73.8283 159.664 73.0167 159.359 72.3892 158.748C71.7659 158.137 71.4542 157.324 71.4542 156.307V156.132C71.4542 155.45 71.586 154.841 71.8496 154.305C72.1131 153.766 72.4854 153.352 72.9665 153.063C73.4518 152.77 74.004 152.624 74.6232 152.624C75.5519 152.624 76.2819 152.917 76.8132 153.502C77.3487 154.088 77.6165 154.918 77.6165 155.993V156.734H73.2929C73.3514 157.177 73.5271 157.533 73.82 157.801C74.117 158.068 74.4914 158.202 74.9432 158.202C75.6419 158.202 76.1878 157.949 76.581 157.443L77.4721 158.441C77.2002 158.826 76.8321 159.127 76.3677 159.344C75.9033 159.558 75.3888 159.664 74.824 159.664ZM74.6169 154.092C74.2571 154.092 73.9643 154.213 73.7384 154.456C73.5167 154.699 73.3744 155.046 73.3117 155.498H75.8343V155.353C75.8259 154.952 75.7172 154.642 75.508 154.425C75.2988 154.203 75.0018 154.092 74.6169 154.092Z" fill="white"/>
<circle cx="63.3906" cy="116.939" r="6.36458" fill="#5B41F5"/>
<path d="M63.3906 124.772C56.7999 124.772 51.457 130.115 51.457 136.706H75.3242C75.3242 130.115 69.9814 124.772 63.3906 124.772Z" fill="#5B41F5"/>
<g filter="url(#filter4_d)">
<rect x="23" y="64.6757" width="80.7812" height="145.039" rx="14.6875" fill="#17142A"/>
<rect x="23.459" y="65.1346" width="79.8633" height="144.121" rx="14.2285" stroke="#4732C5" stroke-width="0.917969"/>
</g>
<path d="M54.7999 157.656H51.4992L50.8716 159.539H48.8699L52.271 150.402H54.0155L57.4355 159.539H55.4337L54.7999 157.656ZM52.0075 156.132H54.2916L53.1433 152.712L52.0075 156.132ZM60.0836 159.539H58.2638V149.9H60.0836V159.539ZM63.4973 159.539H61.6775V152.749H63.4973V159.539ZM61.5708 150.992C61.5708 150.72 61.6608 150.496 61.8407 150.321C62.0247 150.145 62.2736 150.057 62.5874 150.057C62.897 150.057 63.1438 150.145 63.3279 150.321C63.5119 150.496 63.604 150.72 63.604 150.992C63.604 151.268 63.5099 151.494 63.3216 151.67C63.1375 151.846 62.8928 151.933 62.5874 151.933C62.282 151.933 62.0352 151.846 61.8469 151.67C61.6629 151.494 61.5708 151.268 61.5708 150.992ZM67.8209 158.202C68.1556 158.202 68.4275 158.11 68.6367 157.926C68.8458 157.742 68.9546 157.497 68.963 157.192H70.6636C70.6594 157.652 70.5339 158.075 70.287 158.46C70.0402 158.84 69.7014 159.137 69.2705 159.351C68.8438 159.56 68.371 159.664 67.8523 159.664C66.8817 159.664 66.1161 159.357 65.5556 158.742C64.995 158.123 64.7147 157.269 64.7147 156.182V156.062C64.7147 155.017 64.9929 154.182 65.5493 153.559C66.1057 152.935 66.8692 152.624 67.8397 152.624C68.689 152.624 69.3688 152.866 69.8792 153.352C70.3937 153.833 70.6552 154.475 70.6636 155.278H68.963C68.9546 154.927 68.8458 154.642 68.6367 154.425C68.4275 154.203 68.1514 154.092 67.8083 154.092C67.3858 154.092 67.0658 154.247 66.8482 154.556C66.6349 154.862 66.5282 155.36 66.5282 156.05V156.238C66.5282 156.937 66.6349 157.439 66.8482 157.744C67.0616 158.05 67.3858 158.202 67.8209 158.202ZM74.824 159.664C73.8283 159.664 73.0167 159.359 72.3892 158.748C71.7659 158.137 71.4542 157.324 71.4542 156.307V156.132C71.4542 155.45 71.586 154.841 71.8496 154.305C72.1131 153.766 72.4854 153.352 72.9665 153.063C73.4518 152.77 74.004 152.624 74.6232 152.624C75.5519 152.624 76.2819 152.917 76.8132 153.502C77.3487 154.088 77.6165 154.918 77.6165 155.993V156.734H73.2929C73.3514 157.177 73.5271 157.533 73.82 157.801C74.117 158.068 74.4914 158.202 74.9432 158.202C75.6419 158.202 76.1878 157.949 76.581 157.443L77.4721 158.441C77.2002 158.826 76.8321 159.127 76.3677 159.344C75.9033 159.558 75.3888 159.664 74.824 159.664ZM74.6169 154.092C74.2571 154.092 73.9643 154.213 73.7384 154.456C73.5167 154.699 73.3744 155.046 73.3117 155.498H75.8343V155.353C75.8259 154.952 75.7172 154.642 75.508 154.425C75.2988 154.203 75.0018 154.092 74.6169 154.092Z" fill="white"/>
<circle cx="63.3906" cy="116.939" r="6.36458" fill="#5B41F5"/>
<path d="M63.3906 124.772C56.7999 124.772 51.457 130.115 51.457 136.706H75.3242C75.3242 130.115 69.9814 124.772 63.3906 124.772Z" fill="#5B41F5"/>
<defs>
<filter id="filter0_d" x="215.015" y="0.0149231" width="320.97" height="313.97" filterUnits="userSpaceOnUse" color-interpolation-filters="sRGB">
<feFlood flood-opacity="0" result="BackgroundImageFix"/>
<feColorMatrix in="SourceAlpha" type="matrix" values="0 0 0 0 0 0 0 0 0 0 0 0 0 0 0 0 0 0 127 0"/>
<feOffset dy="20"/>
<feGaussianBlur stdDeviation="21.4925"/>
<feColorMatrix type="matrix" values="0 0 0 0 0.356863 0 0 0 0 0.254902 0 0 0 0 0.960784 0 0 0 0.25 0"/>
<feBlend mode="normal" in2="BackgroundImageFix" result="effect1_dropShadow"/>
<feBlend mode="normal" in="SourceGraphic" in2="effect1_dropShadow" result="shape"/>
</filter>
<filter id="filter1_d" x="123.977" y="42.6444" width="106.484" height="106.484" filterUnits="userSpaceOnUse" color-interpolation-filters="sRGB">
<feFlood flood-opacity="0" result="BackgroundImageFix"/>
<feColorMatrix in="SourceAlpha" type="matrix" values="0 0 0 0 0 0 0 0 0 0 0 0 0 0 0 0 0 0 127 0"/>
<feOffset/>
<feGaussianBlur stdDeviation="11.0156"/>
<feColorMatrix type="matrix" values="0 0 0 0 0.356863 0 0 0 0 0.254902 0 0 0 0 0.960784 0 0 0 0.25 0"/>
<feBlend mode="normal" in2="BackgroundImageFix" result="effect1_dropShadow"/>
<feBlend mode="normal" in="SourceGraphic" in2="effect1_dropShadow" result="shape"/>
</filter>
<filter id="filter2_d" x="123.977" y="125.262" width="106.484" height="106.484" filterUnits="userSpaceOnUse" color-interpolation-filters="sRGB">
<feFlood flood-opacity="0" result="BackgroundImageFix"/>
<feColorMatrix in="SourceAlpha" type="matrix" values="0 0 0 0 0 0 0 0 0 0 0 0 0 0 0 0 0 0 127 0"/>
<feOffset/>
<feGaussianBlur stdDeviation="11.0156"/>
<feColorMatrix type="matrix" values="0 0 0 0 0.356863 0 0 0 0 0.254902 0 0 0 0 0.960784 0 0 0 0.25 0"/>
<feBlend mode="normal" in2="BackgroundImageFix" result="effect1_dropShadow"/>
<feBlend mode="normal" in="SourceGraphic" in2="effect1_dropShadow" result="shape"/>
</filter>
<filter id="filter3_d" x="0.96875" y="42.6444" width="124.844" height="189.102" filterUnits="userSpaceOnUse" color-interpolation-filters="sRGB">
<feFlood flood-opacity="0" result="BackgroundImageFix"/>
<feColorMatrix in="SourceAlpha" type="matrix" values="0 0 0 0 0 0 0 0 0 0 0 0 0 0 0 0 0 0 127 0"/>
<feOffset/>
<feGaussianBlur stdDeviation="11.0156"/>
<feColorMatrix type="matrix" values="0 0 0 0 0.356863 0 0 0 0 0.254902 0 0 0 0 0.960784 0 0 0 0.25 0"/>
<feBlend mode="normal" in2="BackgroundImageFix" result="effect1_dropShadow"/>
<feBlend mode="normal" in="SourceGraphic" in2="effect1_dropShadow" result="shape"/>
</filter>
<filter id="filter4_d" x="0.96875" y="42.6444" width="124.844" height="189.102" filterUnits="userSpaceOnUse" color-interpolation-filters="sRGB">
<feFlood flood-opacity="0" result="BackgroundImageFix"/>
<feColorMatrix in="SourceAlpha" type="matrix" values="0 0 0 0 0 0 0 0 0 0 0 0 0 0 0 0 0 0 127 0"/>
<feOffset/>
<feGaussianBlur stdDeviation="11.0156"/>
<feColorMatrix type="matrix" values="0 0 0 0 0.356863 0 0 0 0 0.254902 0 0 0 0 0.960784 0 0 0 0.25 0"/>
<feBlend mode="normal" in2="BackgroundImageFix" result="effect1_dropShadow"/>
<feBlend mode="normal" in="SourceGraphic" in2="effect1_dropShadow" result="shape"/>
</filter>
<linearGradient id="paint0_linear" x1="232.588" y1="95.8868" x2="103.781" y2="95.8867" gradientUnits="userSpaceOnUse">
<stop offset="0.541668" stop-color="#5B41F5"/>
<stop offset="1" stop-color="#0F0F13"/>
</linearGradient>
<linearGradient id="paint1_linear" x1="129.193" y1="178.504" x2="258" y2="178.504" gradientUnits="userSpaceOnUse">
<stop offset="0.541668" stop-color="#5B41F5"/>
<stop offset="1" stop-color="#0F0F13"/>
</linearGradient>
</defs>
</svg>
