<svg width="636" height="396" viewBox="0 0 636 396" fill="none" xmlns="http://www.w3.org/2000/svg">
<g filter="url(#filter0_d)">
<rect x="200.423" y="23.7323" width="182.423" height="309.264" rx="10.7181" fill="#17142A"/>
<rect x="200.758" y="24.0672" width="181.753" height="308.594" rx="10.3831" stroke="#4732C5" stroke-width="0.669879"/>
</g>
<path d="M254.925 190.361H251.852V192.875H255.422V193.64H250.916V186.547H255.374V187.317H251.852V189.597H254.925V190.361ZM258.214 190.293L259.383 188.369H260.435L258.71 190.975L260.488 193.64H259.446L258.228 191.667L257.01 193.64H255.963L257.741 190.975L256.017 188.369H257.059L258.214 190.293ZM263.411 193.002C263.733 193.002 264.014 192.904 264.254 192.709C264.494 192.514 264.627 192.271 264.653 191.979H265.506C265.489 192.281 265.386 192.568 265.194 192.841C265.002 193.114 264.746 193.331 264.424 193.494C264.106 193.656 263.768 193.737 263.411 193.737C262.693 193.737 262.122 193.498 261.696 193.021C261.274 192.54 261.063 191.884 261.063 191.053V190.902C261.063 190.389 261.157 189.933 261.346 189.533C261.534 189.134 261.804 188.824 262.154 188.603C262.508 188.382 262.926 188.272 263.406 188.272C263.997 188.272 264.488 188.449 264.877 188.803C265.27 189.157 265.48 189.616 265.506 190.181H264.653C264.627 189.84 264.497 189.561 264.264 189.343C264.033 189.122 263.747 189.012 263.406 189.012C262.948 189.012 262.593 189.178 262.339 189.509C262.089 189.837 261.964 190.313 261.964 190.936V191.107C261.964 191.714 262.089 192.182 262.339 192.51C262.589 192.838 262.947 193.002 263.411 193.002ZM267.42 189.007C267.82 188.517 268.339 188.272 268.979 188.272C270.093 188.272 270.655 188.9 270.664 190.157V193.64H269.763V190.152C269.76 189.772 269.672 189.491 269.5 189.309C269.331 189.127 269.067 189.036 268.706 189.036C268.414 189.036 268.157 189.114 267.936 189.27C267.716 189.426 267.544 189.631 267.42 189.884V193.64H266.519V186.157H267.42V189.007ZM275.268 193.64C275.216 193.536 275.173 193.351 275.141 193.084C274.722 193.519 274.222 193.737 273.641 193.737C273.121 193.737 272.694 193.591 272.36 193.299C272.028 193.003 271.863 192.63 271.863 192.178C271.863 191.629 272.07 191.204 272.486 190.902C272.905 190.597 273.493 190.444 274.25 190.444H275.126V190.03C275.126 189.715 275.032 189.465 274.844 189.28C274.655 189.092 274.378 188.997 274.011 188.997C273.689 188.997 273.42 189.079 273.202 189.241C272.985 189.403 272.876 189.6 272.876 189.83H271.97C271.97 189.567 272.062 189.314 272.247 189.07C272.436 188.824 272.689 188.629 273.007 188.486C273.329 188.343 273.681 188.272 274.064 188.272C274.672 188.272 275.147 188.424 275.492 188.729C275.836 189.031 276.015 189.449 276.028 189.981V192.407C276.028 192.891 276.089 193.276 276.213 193.562V193.64H275.268ZM273.772 192.953C274.055 192.953 274.323 192.88 274.576 192.734C274.829 192.587 275.013 192.397 275.126 192.164V191.082H274.42C273.316 191.082 272.764 191.405 272.764 192.052C272.764 192.334 272.858 192.555 273.046 192.714C273.235 192.873 273.477 192.953 273.772 192.953ZM278.293 188.369L278.322 189.031C278.725 188.525 279.251 188.272 279.9 188.272C281.014 188.272 281.576 188.9 281.586 190.157V193.64H280.684V190.152C280.681 189.772 280.593 189.491 280.421 189.309C280.253 189.127 279.988 189.036 279.627 189.036C279.335 189.036 279.079 189.114 278.858 189.27C278.637 189.426 278.465 189.631 278.341 189.884V193.64H277.44V188.369H278.293ZM282.73 190.96C282.73 190.139 282.92 189.486 283.3 189.002C283.68 188.515 284.184 188.272 284.81 188.272C285.453 188.272 285.955 188.499 286.316 188.954L286.359 188.369H287.183V193.513C287.183 194.195 286.98 194.732 286.574 195.125C286.171 195.518 285.629 195.715 284.947 195.715C284.567 195.715 284.195 195.634 283.831 195.471C283.468 195.309 283.19 195.086 282.998 194.804L283.466 194.263C283.852 194.741 284.325 194.979 284.883 194.979C285.322 194.979 285.663 194.856 285.906 194.609C286.153 194.362 286.277 194.015 286.277 193.567V193.114C285.916 193.529 285.424 193.737 284.801 193.737C284.184 193.737 283.683 193.489 283.3 192.992C282.92 192.495 282.73 191.818 282.73 190.96ZM283.636 191.063C283.636 191.657 283.758 192.125 284.002 192.466C284.245 192.803 284.586 192.972 285.025 192.972C285.593 192.972 286.01 192.714 286.277 192.198V189.791C286.001 189.288 285.586 189.036 285.034 189.036C284.596 189.036 284.253 189.207 284.007 189.548C283.76 189.889 283.636 190.394 283.636 191.063ZM290.734 193.737C290.019 193.737 289.438 193.503 288.99 193.036C288.542 192.565 288.318 191.936 288.318 191.15V190.985C288.318 190.462 288.417 189.996 288.615 189.587C288.816 189.174 289.095 188.853 289.453 188.622C289.813 188.388 290.203 188.272 290.622 188.272C291.307 188.272 291.84 188.497 292.219 188.949C292.599 189.4 292.789 190.046 292.789 190.887V191.262H289.219C289.232 191.782 289.383 192.203 289.672 192.524C289.964 192.842 290.334 193.002 290.782 193.002C291.101 193.002 291.37 192.937 291.591 192.807C291.812 192.677 292.005 192.505 292.171 192.29L292.721 192.719C292.28 193.398 291.617 193.737 290.734 193.737ZM290.622 189.012C290.258 189.012 289.953 189.145 289.706 189.411C289.459 189.674 289.306 190.045 289.248 190.522H291.888V190.454C291.862 189.996 291.739 189.642 291.518 189.392C291.297 189.139 290.998 189.012 290.622 189.012ZM294.017 194.249H293.242L296.204 186.547H296.974L294.017 194.249ZM300.179 190.478C299.377 190.248 298.792 189.965 298.425 189.631C298.062 189.293 297.88 188.877 297.88 188.384C297.88 187.825 298.102 187.364 298.547 187C298.995 186.633 299.577 186.45 300.291 186.45C300.778 186.45 301.212 186.544 301.592 186.732C301.975 186.921 302.27 187.18 302.478 187.512C302.689 187.843 302.795 188.205 302.795 188.598H301.855C301.855 188.169 301.718 187.833 301.446 187.59C301.173 187.343 300.788 187.219 300.291 187.219C299.83 187.219 299.469 187.322 299.21 187.526C298.953 187.728 298.825 188.009 298.825 188.369C298.825 188.658 298.947 188.903 299.19 189.105C299.437 189.303 299.854 189.485 300.442 189.65C301.033 189.816 301.494 189.999 301.825 190.201C302.16 190.399 302.407 190.631 302.566 190.897C302.728 191.163 302.809 191.477 302.809 191.837C302.809 192.412 302.585 192.873 302.137 193.221C301.689 193.565 301.09 193.737 300.34 193.737C299.853 193.737 299.398 193.645 298.976 193.459C298.554 193.271 298.227 193.015 297.997 192.69C297.769 192.365 297.656 191.996 297.656 191.584H298.596C298.596 192.013 298.753 192.352 299.068 192.602C299.387 192.849 299.81 192.972 300.34 192.972C300.833 192.972 301.212 192.872 301.475 192.67C301.738 192.469 301.869 192.195 301.869 191.847C301.869 191.5 301.748 191.232 301.504 191.043C301.26 190.852 300.819 190.663 300.179 190.478ZM306.059 193.737C305.344 193.737 304.763 193.503 304.315 193.036C303.867 192.565 303.642 191.936 303.642 191.15V190.985C303.642 190.462 303.742 189.996 303.94 189.587C304.141 189.174 304.42 188.853 304.777 188.622C305.138 188.388 305.528 188.272 305.947 188.272C306.632 188.272 307.164 188.497 307.544 188.949C307.924 189.4 308.114 190.046 308.114 190.887V191.262H304.544C304.557 191.782 304.708 192.203 304.997 192.524C305.289 192.842 305.659 193.002 306.107 193.002C306.426 193.002 306.695 192.937 306.916 192.807C307.137 192.677 307.33 192.505 307.496 192.29L308.046 192.719C307.604 193.398 306.942 193.737 306.059 193.737ZM305.947 189.012C305.583 189.012 305.278 189.145 305.031 189.411C304.784 189.674 304.631 190.045 304.573 190.522H307.213V190.454C307.187 189.996 307.064 189.642 306.843 189.392C306.622 189.139 306.323 189.012 305.947 189.012ZM310.141 193.64H309.239V186.157H310.141V193.64ZM312.567 193.64H311.665V186.157H312.567V193.64ZM314.194 194.249H313.419L316.381 186.547H317.15L314.194 194.249ZM318.266 193.64V186.547H320.585C321.354 186.547 321.932 186.706 322.319 187.025C322.708 187.343 322.903 187.814 322.903 188.437C322.903 188.768 322.809 189.062 322.621 189.319C322.432 189.572 322.176 189.769 321.851 189.908C322.234 190.015 322.536 190.22 322.757 190.522C322.981 190.821 323.093 191.178 323.093 191.594C323.093 192.23 322.887 192.73 322.475 193.094C322.062 193.458 321.479 193.64 320.726 193.64H318.266ZM319.201 190.322V192.875H320.745C321.18 192.875 321.523 192.763 321.773 192.539C322.026 192.311 322.153 192 322.153 191.603C322.153 190.749 321.689 190.322 320.76 190.322H319.201ZM319.201 189.572H320.614C321.023 189.572 321.349 189.47 321.593 189.265C321.84 189.061 321.963 188.783 321.963 188.432C321.963 188.043 321.849 187.76 321.622 187.585C321.395 187.406 321.049 187.317 320.585 187.317H319.201V189.572ZM327.594 193.118C327.243 193.531 326.729 193.737 326.05 193.737C325.488 193.737 325.06 193.575 324.764 193.25C324.472 192.922 324.324 192.438 324.321 191.798V188.369H325.222V191.774C325.222 192.573 325.547 192.972 326.196 192.972C326.885 192.972 327.343 192.716 327.57 192.203V188.369H328.471V193.64H327.614L327.594 193.118ZM331.569 192.32L332.797 188.369H333.761L331.642 194.453C331.314 195.33 330.793 195.768 330.079 195.768L329.908 195.754L329.572 195.69V194.96L329.815 194.979C330.121 194.979 330.358 194.918 330.527 194.794C330.699 194.671 330.84 194.445 330.95 194.117L331.15 193.581L329.27 188.369H330.254L331.569 192.32ZM218.158 206.507H215.181V209.64H214.246V202.547H218.64V203.317H215.181V205.743H218.158V206.507ZM222.766 209.118C222.415 209.531 221.9 209.737 221.221 209.737C220.66 209.737 220.231 209.575 219.935 209.25C219.643 208.922 219.495 208.438 219.492 207.798V204.369H220.393V207.774C220.393 208.573 220.718 208.972 221.368 208.972C222.056 208.972 222.514 208.716 222.741 208.203V204.369H223.642V209.64H222.785L222.766 209.118ZM226.239 203.093V204.369H227.223V205.066H226.239V208.334C226.239 208.545 226.283 208.704 226.37 208.812C226.458 208.915 226.607 208.967 226.819 208.967C226.922 208.967 227.065 208.948 227.247 208.909V209.64C227.01 209.705 226.78 209.737 226.555 209.737C226.153 209.737 225.849 209.615 225.645 209.372C225.44 209.128 225.338 208.782 225.338 208.334V205.066H224.378V204.369H225.338V203.093H226.239ZM231.534 209.118C231.183 209.531 230.668 209.737 229.99 209.737C229.428 209.737 228.999 209.575 228.704 209.25C228.411 208.922 228.264 208.438 228.26 207.798V204.369H229.162V207.774C229.162 208.573 229.486 208.972 230.136 208.972C230.824 208.972 231.282 208.716 231.51 208.203V204.369H232.411V209.64H231.553L231.534 209.118ZM236.332 205.178C236.196 205.155 236.048 205.144 235.889 205.144C235.298 205.144 234.897 205.395 234.686 205.899V209.64H233.784V204.369H234.661L234.676 204.978C234.971 204.507 235.39 204.272 235.933 204.272C236.108 204.272 236.241 204.294 236.332 204.34V205.178ZM239.255 209.737C238.54 209.737 237.959 209.503 237.511 209.036C237.063 208.565 236.839 207.936 236.839 207.15V206.985C236.839 206.462 236.938 205.996 237.136 205.587C237.337 205.174 237.616 204.853 237.974 204.622C238.334 204.388 238.724 204.272 239.143 204.272C239.828 204.272 240.361 204.497 240.74 204.949C241.12 205.4 241.31 206.046 241.31 206.887V207.262H237.74C237.753 207.782 237.904 208.203 238.193 208.524C238.485 208.842 238.855 209.002 239.303 209.002C239.622 209.002 239.891 208.937 240.112 208.807C240.333 208.677 240.526 208.505 240.692 208.29L241.242 208.719C240.801 209.398 240.138 209.737 239.255 209.737ZM239.143 205.012C238.779 205.012 238.474 205.145 238.227 205.411C237.98 205.674 237.827 206.045 237.769 206.522H240.409V206.454C240.383 205.996 240.26 205.642 240.039 205.392C239.818 205.139 239.519 205.012 239.143 205.012ZM247.136 206.108L248.987 202.547H250.049L247.604 206.995V209.64H246.669V206.995L244.223 202.547H245.295L247.136 206.108ZM251.803 209.64H250.902V204.369H251.803V209.64ZM250.829 202.971C250.829 202.825 250.873 202.701 250.96 202.601C251.051 202.5 251.184 202.45 251.36 202.45C251.535 202.45 251.668 202.5 251.759 202.601C251.85 202.701 251.896 202.825 251.896 202.971C251.896 203.117 251.85 203.239 251.759 203.336C251.668 203.434 251.535 203.482 251.36 203.482C251.184 203.482 251.051 203.434 250.96 203.336C250.873 203.239 250.829 203.117 250.829 202.971ZM255.437 209.737C254.722 209.737 254.141 209.503 253.693 209.036C253.245 208.565 253.021 207.936 253.021 207.15V206.985C253.021 206.462 253.12 205.996 253.318 205.587C253.519 205.174 253.799 204.853 254.156 204.622C254.516 204.388 254.906 204.272 255.325 204.272C256.01 204.272 256.543 204.497 256.923 204.949C257.303 205.4 257.493 206.046 257.493 206.887V207.262H253.922C253.935 207.782 254.086 208.203 254.375 208.524C254.667 208.842 255.037 209.002 255.486 209.002C255.804 209.002 256.073 208.937 256.294 208.807C256.515 208.677 256.708 208.505 256.874 208.29L257.424 208.719C256.983 209.398 256.32 209.737 255.437 209.737ZM255.325 205.012C254.961 205.012 254.656 205.145 254.409 205.411C254.162 205.674 254.01 206.045 253.951 206.522H256.591V206.454C256.565 205.996 256.442 205.642 256.221 205.392C256 205.139 255.702 205.012 255.325 205.012ZM259.519 209.64H258.618V202.157H259.519V209.64ZM260.747 206.96C260.747 206.152 260.938 205.502 261.321 205.012C261.705 204.518 262.206 204.272 262.827 204.272C263.444 204.272 263.932 204.483 264.293 204.905V202.157H265.194V209.64H264.366L264.322 209.075C263.962 209.516 263.46 209.737 262.817 209.737C262.206 209.737 261.708 209.487 261.321 208.987C260.938 208.487 260.747 207.834 260.747 207.029V206.96ZM261.648 207.063C261.648 207.66 261.771 208.128 262.018 208.466C262.265 208.803 262.606 208.972 263.041 208.972C263.612 208.972 264.03 208.716 264.293 208.203V205.782C264.023 205.285 263.609 205.036 263.051 205.036C262.609 205.036 262.265 205.207 262.018 205.548C261.771 205.889 261.648 206.394 261.648 207.063ZM273.918 203.317H271.639V209.64H270.708V203.317H268.433V202.547H273.918V203.317ZM274.103 206.956C274.103 206.439 274.204 205.975 274.405 205.562C274.61 205.15 274.893 204.832 275.253 204.608C275.617 204.384 276.031 204.272 276.495 204.272C277.213 204.272 277.793 204.52 278.234 205.017C278.679 205.514 278.902 206.175 278.902 206.999V207.063C278.902 207.576 278.803 208.037 278.604 208.446C278.41 208.852 278.129 209.169 277.762 209.396C277.398 209.623 276.979 209.737 276.505 209.737C275.79 209.737 275.211 209.489 274.766 208.992C274.324 208.495 274.103 207.837 274.103 207.019V206.956ZM275.009 207.063C275.009 207.647 275.144 208.117 275.414 208.471C275.687 208.825 276.05 209.002 276.505 209.002C276.963 209.002 277.327 208.823 277.596 208.466C277.866 208.105 278 207.602 278 206.956C278 206.378 277.862 205.91 277.586 205.553C277.314 205.192 276.95 205.012 276.495 205.012C276.05 205.012 275.691 205.189 275.419 205.543C275.146 205.897 275.009 206.404 275.009 207.063ZM281.503 207.199L280.938 207.789V209.64H280.037V202.157H280.938V206.683L281.42 206.103L283.062 204.369H284.158L282.107 206.571L284.396 209.64H283.339L281.503 207.199ZM287.178 209.737C286.463 209.737 285.882 209.503 285.434 209.036C284.986 208.565 284.762 207.936 284.762 207.15V206.985C284.762 206.462 284.861 205.996 285.059 205.587C285.26 205.174 285.539 204.853 285.897 204.622C286.257 204.388 286.647 204.272 287.066 204.272C287.751 204.272 288.284 204.497 288.663 204.949C289.043 205.4 289.233 206.046 289.233 206.887V207.262H285.663C285.676 207.782 285.827 208.203 286.116 208.524C286.408 208.842 286.778 209.002 287.226 209.002C287.545 209.002 287.814 208.937 288.035 208.807C288.256 208.677 288.449 208.505 288.615 208.29L289.165 208.719C288.724 209.398 288.061 209.737 287.178 209.737ZM287.066 205.012C286.702 205.012 286.397 205.145 286.15 205.411C285.903 205.674 285.75 206.045 285.692 206.522H288.332V206.454C288.306 205.996 288.183 205.642 287.962 205.392C287.741 205.139 287.442 205.012 287.066 205.012ZM291.133 204.369L291.162 205.031C291.565 204.525 292.091 204.272 292.741 204.272C293.855 204.272 294.416 204.9 294.426 206.157V209.64H293.525V206.152C293.522 205.772 293.434 205.491 293.262 205.309C293.093 205.127 292.828 205.036 292.468 205.036C292.176 205.036 291.919 205.114 291.698 205.27C291.477 205.426 291.305 205.631 291.182 205.884V209.64H290.281V204.369H291.133ZM298.854 208.242C298.854 207.998 298.761 207.81 298.576 207.677C298.395 207.54 298.075 207.423 297.617 207.326C297.162 207.228 296.8 207.111 296.53 206.975C296.264 206.839 296.066 206.676 295.936 206.488C295.81 206.3 295.746 206.076 295.746 205.816C295.746 205.384 295.928 205.018 296.292 204.72C296.659 204.421 297.126 204.272 297.695 204.272C298.292 204.272 298.776 204.426 299.146 204.734C299.52 205.043 299.707 205.437 299.707 205.918H298.8C298.8 205.671 298.695 205.459 298.484 205.28C298.276 205.101 298.013 205.012 297.695 205.012C297.367 205.012 297.11 205.083 296.925 205.226C296.74 205.369 296.647 205.556 296.647 205.787C296.647 206.004 296.733 206.168 296.906 206.279C297.078 206.389 297.388 206.494 297.836 206.595C298.287 206.696 298.653 206.816 298.932 206.956C299.211 207.095 299.417 207.264 299.551 207.462C299.687 207.657 299.755 207.896 299.755 208.178C299.755 208.649 299.567 209.027 299.19 209.313C298.813 209.596 298.325 209.737 297.724 209.737C297.302 209.737 296.928 209.662 296.604 209.513C296.279 209.364 296.024 209.156 295.839 208.889C295.657 208.62 295.566 208.329 295.566 208.018H296.467C296.483 208.32 296.604 208.56 296.828 208.738C297.055 208.914 297.354 209.002 297.724 209.002C298.065 209.002 298.338 208.933 298.542 208.797C298.75 208.657 298.854 208.472 298.854 208.242ZM307.866 207.063C307.866 207.868 307.681 208.516 307.31 209.006C306.94 209.494 306.443 209.737 305.82 209.737C305.154 209.737 304.639 209.502 304.276 209.031L304.232 209.64H303.404V202.157H304.305V204.949C304.669 204.497 305.17 204.272 305.81 204.272C306.45 204.272 306.952 204.514 307.315 204.997C307.682 205.481 307.866 206.144 307.866 206.985V207.063ZM306.965 206.96C306.965 206.347 306.846 205.873 306.609 205.538C306.372 205.204 306.031 205.036 305.586 205.036C304.992 205.036 304.565 205.312 304.305 205.864V208.144C304.581 208.696 305.011 208.972 305.596 208.972C306.028 208.972 306.364 208.805 306.604 208.471C306.844 208.136 306.965 207.633 306.965 206.96ZM311.193 209.737C310.478 209.737 309.897 209.503 309.449 209.036C309.001 208.565 308.777 207.936 308.777 207.15V206.985C308.777 206.462 308.876 205.996 309.074 205.587C309.275 205.174 309.554 204.853 309.912 204.622C310.272 204.388 310.662 204.272 311.081 204.272C311.766 204.272 312.299 204.497 312.679 204.949C313.059 205.4 313.248 206.046 313.248 206.887V207.262H309.678C309.691 207.782 309.842 208.203 310.131 208.524C310.423 208.842 310.793 209.002 311.242 209.002C311.56 209.002 311.829 208.937 312.05 208.807C312.271 208.677 312.464 208.505 312.63 208.29L313.18 208.719C312.739 209.398 312.076 209.737 311.193 209.737ZM311.081 205.012C310.717 205.012 310.412 205.145 310.165 205.411C309.918 205.674 309.766 206.045 309.707 206.522H312.347V206.454C312.321 205.996 312.198 205.642 311.977 205.392C311.756 205.139 311.458 205.012 311.081 205.012ZM314.739 209.64V205.066H313.906V204.369H314.739V203.828C314.739 203.263 314.89 202.826 315.192 202.518C315.494 202.209 315.921 202.055 316.473 202.055C316.681 202.055 316.887 202.083 317.092 202.138L317.043 202.869C316.891 202.839 316.728 202.825 316.556 202.825C316.264 202.825 316.038 202.911 315.879 203.083C315.72 203.252 315.64 203.495 315.64 203.814V204.369H316.766V205.066H315.64V209.64H314.739ZM317.525 206.956C317.525 206.439 317.626 205.975 317.827 205.562C318.032 205.15 318.315 204.832 318.675 204.608C319.039 204.384 319.453 204.272 319.917 204.272C320.635 204.272 321.215 204.52 321.656 205.017C322.101 205.514 322.324 206.175 322.324 206.999V207.063C322.324 207.576 322.225 208.037 322.026 208.446C321.832 208.852 321.551 209.169 321.184 209.396C320.82 209.623 320.401 209.737 319.927 209.737C319.212 209.737 318.633 209.489 318.188 208.992C317.746 208.495 317.525 207.837 317.525 207.019V206.956ZM318.431 207.063C318.431 207.647 318.566 208.117 318.836 208.471C319.109 208.825 319.472 209.002 319.927 209.002C320.385 209.002 320.749 208.823 321.018 208.466C321.288 208.105 321.422 207.602 321.422 206.956C321.422 206.378 321.284 205.91 321.008 205.553C320.736 205.192 320.372 205.012 319.917 205.012C319.472 205.012 319.113 205.189 318.841 205.543C318.568 205.897 318.431 206.404 318.431 207.063ZM326.001 205.178C325.865 205.155 325.717 205.144 325.558 205.144C324.967 205.144 324.566 205.395 324.355 205.899V209.64H323.454V204.369H324.331L324.345 204.978C324.641 204.507 325.06 204.272 325.602 204.272C325.777 204.272 325.91 204.294 326.001 204.34V205.178ZM328.924 209.737C328.21 209.737 327.628 209.503 327.18 209.036C326.732 208.565 326.508 207.936 326.508 207.15V206.985C326.508 206.462 326.607 205.996 326.805 205.587C327.006 205.174 327.286 204.853 327.643 204.622C328.003 204.388 328.393 204.272 328.812 204.272C329.497 204.272 330.03 204.497 330.41 204.949C330.79 205.4 330.98 206.046 330.98 206.887V207.262H327.409C327.422 207.782 327.573 208.203 327.862 208.524C328.154 208.842 328.525 209.002 328.973 209.002C329.291 209.002 329.561 208.937 329.781 208.807C330.002 208.677 330.195 208.505 330.361 208.29L330.912 208.719C330.47 209.398 329.807 209.737 328.924 209.737ZM328.812 205.012C328.448 205.012 328.143 205.145 327.896 205.411C327.649 205.674 327.497 206.045 327.438 206.522H330.079V206.454C330.053 205.996 329.929 205.642 329.708 205.392C329.487 205.139 329.189 205.012 328.812 205.012ZM335.349 204.369L335.374 204.954C335.76 204.499 336.281 204.272 336.937 204.272C337.674 204.272 338.176 204.554 338.442 205.119C338.618 204.866 338.845 204.661 339.124 204.505C339.407 204.35 339.74 204.272 340.123 204.272C341.279 204.272 341.867 204.884 341.886 206.108V209.64H340.985V206.162C340.985 205.785 340.899 205.504 340.727 205.319C340.555 205.131 340.266 205.036 339.86 205.036C339.525 205.036 339.248 205.137 339.027 205.338C338.806 205.536 338.678 205.804 338.642 206.142V209.64H337.736V206.186C337.736 205.42 337.361 205.036 336.611 205.036C336.02 205.036 335.615 205.288 335.398 205.791V209.64H334.497V204.369H335.349ZM346.504 209.64C346.452 209.536 346.41 209.351 346.378 209.084C345.959 209.519 345.459 209.737 344.877 209.737C344.358 209.737 343.931 209.591 343.596 209.299C343.265 209.003 343.099 208.63 343.099 208.178C343.099 207.629 343.307 207.204 343.723 206.902C344.142 206.597 344.73 206.444 345.486 206.444H346.363V206.03C346.363 205.715 346.269 205.465 346.08 205.28C345.892 205.092 345.614 204.997 345.247 204.997C344.926 204.997 344.656 205.079 344.439 205.241C344.221 205.403 344.113 205.6 344.113 205.83H343.206C343.206 205.567 343.299 205.314 343.484 205.07C343.672 204.824 343.926 204.629 344.244 204.486C344.566 204.343 344.918 204.272 345.301 204.272C345.908 204.272 346.384 204.424 346.728 204.729C347.073 205.031 347.251 205.449 347.264 205.981V208.407C347.264 208.891 347.326 209.276 347.449 209.562V209.64H346.504ZM345.009 208.953C345.291 208.953 345.559 208.88 345.813 208.734C346.066 208.587 346.249 208.397 346.363 208.164V207.082H345.657C344.553 207.082 344 207.405 344 208.052C344 208.334 344.095 208.555 344.283 208.714C344.471 208.873 344.713 208.953 345.009 208.953ZM349.9 203.093V204.369H350.883V205.066H349.9V208.334C349.9 208.545 349.943 208.704 350.031 208.812C350.119 208.915 350.268 208.967 350.479 208.967C350.583 208.967 350.726 208.948 350.908 208.909V209.64C350.671 209.705 350.44 209.737 350.216 209.737C349.813 209.737 349.51 209.615 349.305 209.372C349.101 209.128 348.998 208.782 348.998 208.334V205.066H348.039V204.369H348.998V203.093H349.9ZM355.195 209.118C354.844 209.531 354.329 209.737 353.65 209.737C353.089 209.737 352.66 209.575 352.364 209.25C352.072 208.922 351.924 208.438 351.921 207.798V204.369H352.822V207.774C352.822 208.573 353.147 208.972 353.796 208.972C354.485 208.972 354.943 208.716 355.17 208.203V204.369H356.071V209.64H355.214L355.195 209.118ZM359.993 205.178C359.856 205.155 359.709 205.144 359.549 205.144C358.958 205.144 358.557 205.395 358.346 205.899V209.64H357.445V204.369H358.322L358.336 204.978C358.632 204.507 359.051 204.272 359.593 204.272C359.769 204.272 359.902 204.294 359.993 204.34V205.178ZM361.805 209.64H360.904V204.369H361.805V209.64ZM360.831 202.971C360.831 202.825 360.874 202.701 360.962 202.601C361.053 202.5 361.186 202.45 361.361 202.45C361.537 202.45 361.67 202.5 361.761 202.601C361.852 202.701 361.897 202.825 361.897 202.971C361.897 203.117 361.852 203.239 361.761 203.336C361.67 203.434 361.537 203.482 361.361 203.482C361.186 203.482 361.053 203.434 360.962 203.336C360.874 203.239 360.831 203.117 360.831 202.971ZM364.474 203.093V204.369H365.458V205.066H364.474V208.334C364.474 208.545 364.518 208.704 364.606 208.812C364.693 208.915 364.843 208.967 365.054 208.967C365.158 208.967 365.301 208.948 365.483 208.909V209.64C365.245 209.705 365.015 209.737 364.791 209.737C364.388 209.737 364.084 209.615 363.88 209.372C363.675 209.128 363.573 208.782 363.573 208.334V205.066H362.613V204.369H363.573V203.093H364.474ZM368.24 208.32L369.467 204.369H370.432L368.313 210.453C367.985 211.33 367.463 211.768 366.749 211.768L366.579 211.754L366.242 211.69V210.96L366.486 210.979C366.791 210.979 367.028 210.918 367.197 210.794C367.369 210.671 367.511 210.445 367.621 210.117L367.821 209.581L365.94 204.369H366.924L368.24 208.32Z" fill="white"/>
<path d="M270.306 142.109C269.278 144.052 267.22 145.378 264.866 145.378C264.02 145.378 263.22 145.218 262.465 144.898C263.494 142.955 265.551 141.629 267.906 141.629C268.752 141.629 269.575 141.789 270.306 142.109Z" fill="#39D86E"/>
<path d="M252.956 151.367C253.802 153.721 256.065 155.39 258.694 155.39C262.054 155.39 264.797 152.67 264.797 149.287C264.797 149.264 264.797 149.264 264.797 149.241C264.797 149.15 264.797 149.058 264.797 148.967V148.944C264.683 147.366 263.357 146.132 261.757 146.132C261.117 146.132 260.545 146.315 260.065 146.658C259.242 147.206 258.717 148.144 258.717 149.195C258.717 150.841 257.391 152.19 255.745 152.236C255.722 152.236 255.676 152.236 255.653 152.236C255.631 152.236 255.585 152.236 255.562 152.236C254.579 152.236 253.687 151.893 252.956 151.367Z" fill="#C336D8"/>
<path d="M255.653 151.458C256.903 151.458 257.916 150.445 257.916 149.195C257.916 147.945 256.903 146.932 255.653 146.932C254.404 146.932 253.39 147.945 253.39 149.195C253.39 150.445 254.404 151.458 255.653 151.458Z" fill="#C336D8"/>
<path d="M253.436 158.43C248.407 155.527 246.67 149.058 249.573 144.029C249.87 143.526 250.19 143.046 250.556 142.589L250.579 142.566L255.288 137.034C256.499 138.063 256.659 139.891 255.608 141.103L252.773 144.417C252.499 144.738 252.27 145.08 252.064 145.446C249.961 149.104 251.219 153.79 254.876 155.916C258.534 158.042 263.22 156.761 265.346 153.104C265.551 152.738 265.734 152.35 265.871 151.984L267.334 147.869C267.86 146.361 269.529 145.583 271.015 146.109L268.592 152.99C268.386 153.538 268.135 154.064 267.837 154.567C264.934 159.596 258.465 161.333 253.436 158.43Z" fill="#5B41F5"/>
<path d="M309.19 143.183L305.692 153.698C305.349 154.704 304.412 155.39 303.361 155.39H302.812L300.046 147.046L297.829 153.698C297.486 154.704 296.549 155.39 295.497 155.39H294.948L290.902 143.183H291.68C292.731 143.183 293.691 143.869 294.011 144.875L296.114 151.207L298.789 143.183H299.566C300.618 143.183 301.578 143.869 301.898 144.875L304.001 151.207L306.104 144.875C306.447 143.869 307.384 143.183 308.435 143.183H309.19Z" fill="white"/>
<path d="M269.986 155.39L274.032 143.183H274.604C275.655 143.183 276.615 143.869 276.935 144.875L280.433 155.39H279.656C278.604 155.39 277.644 154.704 277.324 153.698L275.221 147.366L273.118 153.698C272.775 154.704 271.838 155.39 270.786 155.39H269.986Z" fill="white"/>
<path d="M281.736 155.39V143.206H286.239C288.754 143.206 290.834 145.195 290.88 147.709C290.902 150.27 288.845 152.35 286.308 152.35H285.759V150.43C285.759 150.155 285.988 149.927 286.262 149.927C287.382 149.927 288.365 149.081 288.456 147.938C288.548 146.681 287.565 145.629 286.308 145.629H284.159V152.944C284.159 154.316 283.062 155.39 281.736 155.39Z" fill="white"/>
<path d="M310.447 143.206V152.967C310.447 154.316 311.544 155.39 312.87 155.39V145.629C312.87 144.303 311.796 143.206 310.447 143.206Z" fill="white"/>
<path d="M329.215 145.629V148.075H334.061C334.061 149.424 332.963 150.498 331.638 150.498H329.237V152.944H335.318C335.318 154.293 334.221 155.367 332.895 155.367H326.791V143.206H335.318C335.318 144.555 334.221 145.629 332.895 145.629H329.215Z" fill="white"/>
<path d="M325.031 143.206V155.39H323.865C323.065 155.39 322.334 155.001 321.877 154.361L317.03 147.458V152.967C317.03 154.316 315.933 155.39 314.607 155.39V143.206H315.773C316.573 143.206 317.305 143.595 317.762 144.235L322.608 151.138V145.629C322.608 144.303 323.705 143.206 325.031 143.206Z" fill="white"/>
<path d="M80.7078 146.298L180.47 146.298" stroke="url(#paint0_linear)" stroke-width="0.712589"/>
<path d="M186.171 146.298L180.47 142.022V150.573L186.171 146.298Z" fill="#5B41F5"/>
<path d="M200.423 210.431H100.66" stroke="url(#paint1_linear)" stroke-width="0.712589"/>
<path d="M94.9597 210.431L100.66 206.155V214.706L94.9597 210.431Z" fill="#5B41F5"/>
<g filter="url(#filter1_d)">
<rect x="113.487" y="122.07" width="48.4561" height="48.4561" rx="11.4014" fill="#17142A"/>
<rect x="113.843" y="122.426" width="47.7435" height="47.7435" rx="11.0451" stroke="#4732C5" stroke-width="0.712589"/>
</g>
<path d="M137.85 140.391C133.348 140.391 129.591 138.751 128.701 136.569C128.568 136.891 128.498 137.224 128.498 137.564C128.498 140.226 132.684 142.384 137.85 142.384C143.014 142.384 147.202 140.226 147.202 137.564C147.202 137.223 147.128 136.891 146.999 136.569C146.106 138.751 142.35 140.391 137.85 140.391Z" fill="#5B41F5"/>
<path d="M137.85 143.853C133.348 143.853 129.591 142.212 128.701 140.032C128.568 140.353 128.498 140.686 128.498 141.028C128.498 143.688 132.684 145.847 137.85 145.847C143.014 145.847 147.202 143.689 147.202 141.028C147.202 140.686 147.128 140.353 146.999 140.032C146.106 142.213 142.35 143.853 137.85 143.853Z" fill="#5B41F5"/>
<path d="M137.85 147.425C133.348 147.425 129.591 145.787 128.701 143.603C128.568 143.925 128.498 144.258 128.498 144.6C128.498 147.261 132.684 149.418 137.85 149.418C143.014 149.418 147.202 147.262 147.202 144.6C147.202 144.258 147.128 143.925 146.999 143.603C146.106 145.787 142.35 147.425 137.85 147.425Z" fill="#5B41F5"/>
<path d="M137.851 138.833C143.016 138.833 147.203 136.675 147.203 134.014C147.203 131.353 143.016 129.195 137.851 129.195C132.686 129.195 128.499 131.353 128.499 134.014C128.499 136.675 132.686 138.833 137.851 138.833Z" fill="#5B41F5"/>
<path d="M128.835 159.675L129.517 156.07H130.558L129.434 161.136H128.383L127.558 157.747L126.734 161.136H125.683L124.559 156.07H125.6L126.285 159.668L127.12 156.07H128.004L128.835 159.675ZM133.46 161.136H132.454V157.26L131.254 157.632V156.815L133.352 156.063H133.46V161.136ZM138.077 160.092H136.247L135.899 161.136H134.789L136.675 156.07H137.642L139.538 161.136H138.428L138.077 160.092ZM136.528 159.247H137.795L137.158 157.351L136.528 159.247ZM140.011 161.136V156.07H141.57C142.016 156.07 142.413 156.171 142.764 156.373C143.116 156.572 143.391 156.858 143.588 157.229C143.785 157.598 143.884 158.017 143.884 158.488V158.721C143.884 159.192 143.787 159.611 143.592 159.978C143.399 160.344 143.127 160.628 142.774 160.83C142.421 161.032 142.024 161.134 141.581 161.136H140.011ZM141.055 156.916V160.298H141.56C141.968 160.298 142.28 160.164 142.496 159.897C142.711 159.631 142.822 159.249 142.826 158.753V158.485C142.826 157.97 142.72 157.58 142.506 157.316C142.293 157.049 141.981 156.916 141.57 156.916H141.055ZM147.43 160.092H145.599L145.251 161.136H144.141L146.027 156.07H146.995L148.891 161.136H147.781L147.43 160.092ZM145.881 159.247H147.148L146.511 157.351L145.881 159.247ZM150.474 161.136H149.43V156.07H150.474V161.136Z" fill="white"/>
<g filter="url(#filter2_d)">
<rect x="113.487" y="186.203" width="48.4561" height="48.4561" rx="11.4014" fill="#17142A"/>
<rect x="113.843" y="186.559" width="47.7435" height="47.7435" rx="11.0451" stroke="#4732C5" stroke-width="0.712589"/>
</g>
<path d="M128.902 223.808L129.584 220.203H130.624L129.5 225.269H128.449L127.625 221.88L126.8 225.269H125.749L124.625 220.203H125.666L126.351 223.801L127.186 220.203H128.07L128.902 223.808ZM133.526 225.269H132.52V221.393L131.32 221.765V220.948L133.418 220.196H133.526V225.269ZM139.26 223.582C139.22 224.127 139.019 224.556 138.654 224.869C138.293 225.182 137.815 225.339 137.221 225.339C136.571 225.339 136.06 225.121 135.686 224.685C135.315 224.246 135.13 223.645 135.13 222.882V222.573C135.13 222.085 135.216 221.656 135.387 221.285C135.559 220.914 135.804 220.63 136.121 220.433C136.441 220.233 136.813 220.134 137.235 220.134C137.819 220.134 138.29 220.29 138.647 220.603C139.005 220.916 139.211 221.356 139.267 221.922H138.223C138.197 221.595 138.106 221.358 137.948 221.212C137.793 221.064 137.555 220.989 137.235 220.989C136.887 220.989 136.626 221.115 136.452 221.365C136.28 221.613 136.192 222 136.187 222.524V222.907C136.187 223.454 136.27 223.854 136.435 224.107C136.602 224.36 136.864 224.486 137.221 224.486C137.543 224.486 137.783 224.413 137.941 224.267C138.101 224.119 138.193 223.89 138.216 223.582H139.26ZM139.945 225.269V220.203H141.504C141.949 220.203 142.347 220.304 142.698 220.506C143.05 220.705 143.325 220.991 143.522 221.362C143.719 221.731 143.818 222.15 143.818 222.621V222.854C143.818 223.325 143.72 223.744 143.526 224.111C143.333 224.477 143.061 224.761 142.708 224.963C142.355 225.165 141.958 225.267 141.515 225.269H139.945ZM140.989 221.049V224.431H141.494C141.902 224.431 142.214 224.297 142.43 224.03C142.645 223.764 142.756 223.382 142.76 222.886V222.618C142.76 222.103 142.653 221.713 142.44 221.449C142.227 221.182 141.915 221.049 141.504 221.049H140.989ZM147.363 224.225H145.533L145.185 225.269H144.075L145.961 220.203H146.929L148.825 225.269H147.715L147.363 224.225ZM145.815 223.38H147.082L146.445 221.484L145.815 223.38ZM150.408 225.269H149.364V220.203H150.408V225.269Z" fill="white"/>
<path d="M137.85 204.524C133.348 204.524 129.591 202.884 128.701 200.702C128.568 201.024 128.498 201.357 128.498 201.697C128.498 204.359 132.684 206.517 137.85 206.517C143.014 206.517 147.202 204.359 147.202 201.697C147.202 201.356 147.128 201.024 146.999 200.702C146.106 202.884 142.35 204.524 137.85 204.524Z" fill="#5B41F5"/>
<path d="M137.85 207.986C133.348 207.986 129.591 206.345 128.701 204.165C128.568 204.486 128.498 204.819 128.498 205.161C128.498 207.821 132.684 209.98 137.85 209.98C143.014 209.98 147.202 207.822 147.202 205.161C147.202 204.819 147.128 204.486 146.999 204.165C146.106 206.346 142.35 207.986 137.85 207.986Z" fill="#5B41F5"/>
<path d="M137.85 211.558C133.348 211.558 129.591 209.92 128.701 207.736C128.568 208.058 128.498 208.391 128.498 208.733C128.498 211.394 132.684 213.551 137.85 213.551C143.014 213.551 147.202 211.395 147.202 208.733C147.202 208.391 147.128 208.058 146.999 207.736C146.106 209.92 142.35 211.558 137.85 211.558Z" fill="#5B41F5"/>
<path d="M137.851 202.966C143.016 202.966 147.203 200.808 147.203 198.147C147.203 195.486 143.016 193.328 137.851 193.328C132.686 193.328 128.499 195.486 128.499 198.147C128.499 200.808 132.686 202.966 137.851 202.966Z" fill="#5B41F5"/>
<path d="M382.846 149.148H420.059V57.9366H535.34" stroke="url(#paint2_linear)" stroke-width="0.712589"/>
<path d="M402.798 168.388L438.428 168.388V122.426L555.292 122.426" stroke="url(#paint3_linear)" stroke-width="0.712589"/>
<path d="M541.04 57.9365L535.34 53.661V62.2121L541.04 57.9365Z" fill="#5B41F5"/>
<path d="M397.097 168.388L402.798 164.112V172.663L397.097 168.388Z" fill="#5B41F5"/>
<g filter="url(#filter3_d)">
<rect x="451.254" y="33.7086" width="48.4561" height="48.4561" rx="11.4014" fill="#17142A"/>
<rect x="451.61" y="34.0649" width="47.7435" height="47.7435" rx="11.0451" stroke="#4732C5" stroke-width="0.712589"/>
</g>
<path d="M466.603 71.3137L467.285 67.709H468.325L467.201 72.7751H466.15L465.326 69.3861L464.501 72.7751H463.45L462.326 67.709H463.367L464.052 71.3068L464.887 67.709H465.771L466.603 71.3137ZM471.227 72.7751H470.221V68.899L469.021 69.2713V68.4536L471.119 67.7021H471.227V72.7751ZM475.844 71.7313H474.014L473.666 72.7751H472.556L474.442 67.709H475.409L477.305 72.7751H476.195L475.844 71.7313ZM474.296 70.8858H475.562L474.925 68.9895L474.296 70.8858ZM477.779 72.7751V67.709H479.337C479.783 67.709 480.181 67.8099 480.531 68.0117C480.883 68.2112 481.158 68.4965 481.355 68.8677C481.553 69.2365 481.651 69.6563 481.651 70.1272V70.3604C481.651 70.8312 481.554 71.2499 481.359 71.6164C481.166 71.9829 480.894 72.2671 480.541 72.4689C480.189 72.6707 479.791 72.7728 479.348 72.7751H477.779ZM478.822 68.5545V71.9365H479.327C479.735 71.9365 480.047 71.8032 480.263 71.5364C480.479 71.2696 480.589 70.8881 480.593 70.3917V70.1238C480.593 69.6088 480.487 69.2191 480.273 68.9547C480.06 68.6879 479.748 68.5545 479.337 68.5545H478.822ZM485.197 71.7313H483.367L483.019 72.7751H481.909L483.795 67.709H484.762L486.658 72.7751H485.548L485.197 71.7313ZM483.648 70.8858H484.915L484.278 68.9895L483.648 70.8858ZM488.241 72.7751H487.197V67.709H488.241V72.7751Z" fill="white"/>
<g filter="url(#filter4_d)">
<rect x="451.254" y="97.8416" width="48.4561" height="48.4561" rx="11.4014" fill="#17142A"/>
<rect x="451.61" y="98.1978" width="47.7435" height="47.7435" rx="11.0451" stroke="#4732C5" stroke-width="0.712589"/>
</g>
<path d="M466.669 135.447L467.351 131.842H468.391L467.267 136.908H466.216L465.392 133.519L464.567 136.908H463.516L462.393 131.842H463.433L464.118 135.44L464.953 131.842H465.837L466.669 135.447ZM471.293 136.908H470.287V133.032L469.087 133.404V132.587L471.185 131.835H471.293V136.908ZM477.027 135.221C476.988 135.766 476.786 136.195 476.422 136.508C476.06 136.821 475.582 136.978 474.988 136.978C474.339 136.978 473.827 136.76 473.454 136.324C473.083 135.885 472.897 135.284 472.897 134.521V134.212C472.897 133.724 472.983 133.295 473.154 132.924C473.326 132.553 473.571 132.269 473.889 132.072C474.209 131.872 474.58 131.772 475.002 131.772C475.587 131.772 476.057 131.929 476.415 132.242C476.772 132.555 476.978 132.995 477.034 133.561H475.99C475.965 133.234 475.873 132.997 475.715 132.851C475.56 132.703 475.322 132.628 475.002 132.628C474.654 132.628 474.393 132.754 474.219 133.004C474.048 133.252 473.959 133.639 473.955 134.163V134.546C473.955 135.093 474.037 135.493 474.202 135.746C474.369 135.999 474.631 136.125 474.988 136.125C475.311 136.125 475.551 136.052 475.708 135.906C475.868 135.758 475.96 135.529 475.983 135.221H477.027ZM477.713 136.908V131.842H479.271C479.717 131.842 480.114 131.943 480.465 132.145C480.817 132.344 481.092 132.63 481.289 133.001C481.487 133.369 481.585 133.789 481.585 134.26V134.493C481.585 134.964 481.488 135.383 481.293 135.749C481.1 136.116 480.828 136.4 480.475 136.602C480.123 136.804 479.725 136.906 479.282 136.908H477.713ZM478.756 132.688V136.07H479.261C479.669 136.07 479.981 135.936 480.197 135.669C480.413 135.403 480.523 135.021 480.527 134.525V134.257C480.527 133.742 480.421 133.352 480.207 133.088C479.994 132.821 479.682 132.688 479.271 132.688H478.756ZM485.131 135.864H483.301L482.953 136.908H481.843L483.728 131.842H484.696L486.592 136.908H485.482L485.131 135.864ZM483.582 135.019H484.849L484.212 133.122L483.582 135.019ZM488.175 136.908H487.131V131.842H488.175V136.908Z" fill="white"/>
<path d="M475.618 52.0299C471.115 52.0299 467.359 50.3903 466.469 48.2083C466.335 48.5297 466.265 48.8625 466.265 49.2031C466.265 51.8646 470.451 54.023 475.618 54.023C480.782 54.023 484.97 51.8653 484.97 49.2031C484.97 48.8618 484.895 48.5297 484.766 48.2083C483.874 50.3903 480.117 52.0299 475.618 52.0299Z" fill="#5B41F5"/>
<path d="M475.618 55.4917C471.115 55.4917 467.359 53.8514 466.469 51.6708C466.335 51.9922 466.265 52.325 466.265 52.667C466.265 55.3271 470.451 57.4856 475.618 57.4856C480.782 57.4856 484.97 55.3278 484.97 52.667C484.97 52.325 484.895 51.9922 484.766 51.6708C483.874 53.8521 480.117 55.4917 475.618 55.4917Z" fill="#5B41F5"/>
<path d="M475.618 59.0639C471.115 59.0639 467.359 57.4256 466.469 55.2422C466.335 55.5636 466.265 55.8971 466.265 56.2384C466.265 58.9 470.451 61.057 475.618 61.057C480.782 61.057 484.97 58.9007 484.97 56.2384C484.97 55.8971 484.895 55.5636 484.766 55.2422C483.874 57.4256 480.117 59.0639 475.618 59.0639Z" fill="#5B41F5"/>
<path d="M475.618 50.4715C480.783 50.4715 484.97 48.3141 484.97 45.6529C484.97 42.9917 480.783 40.8344 475.618 40.8344C470.453 40.8344 466.266 42.9917 466.266 45.6529C466.266 48.3141 470.453 50.4715 475.618 50.4715Z" fill="#5B41F5"/>
<path d="M475.618 116.163C471.115 116.163 467.359 114.523 466.469 112.341C466.335 112.663 466.265 112.996 466.265 113.336C466.265 115.998 470.451 118.156 475.618 118.156C480.782 118.156 484.97 115.998 484.97 113.336C484.97 112.995 484.895 112.663 484.766 112.341C483.874 114.523 480.117 116.163 475.618 116.163Z" fill="#5B41F5"/>
<path d="M475.618 119.625C471.115 119.625 467.359 117.984 466.469 115.804C466.335 116.125 466.265 116.458 466.265 116.8C466.265 119.46 470.451 121.619 475.618 121.619C480.782 121.619 484.97 119.461 484.97 116.8C484.97 116.458 484.895 116.125 484.766 115.804C483.874 117.985 480.117 119.625 475.618 119.625Z" fill="#5B41F5"/>
<path d="M475.618 123.197C471.115 123.197 467.359 121.559 466.469 119.375C466.335 119.697 466.265 120.03 466.265 120.371C466.265 123.033 470.451 125.19 475.618 125.19C480.782 125.19 484.97 123.034 484.97 120.371C484.97 120.03 484.895 119.697 484.766 119.375C483.874 121.559 480.117 123.197 475.618 123.197Z" fill="#5B41F5"/>
<path d="M475.618 114.605C480.783 114.605 484.97 112.447 484.97 109.786C484.97 107.125 480.783 104.967 475.618 104.967C470.453 104.967 466.266 107.125 466.266 109.786C466.266 112.447 470.453 114.605 475.618 114.605Z" fill="#5B41F5"/>
<path d="M382.846 216.844H420.059V308.055H535.34" stroke="url(#paint4_linear)" stroke-width="0.712589"/>
<path d="M402.798 197.604L438.428 197.604V243.566H555.292" stroke="url(#paint5_linear)" stroke-width="0.712589"/>
<path d="M541.04 308.055L535.34 312.331V303.78L541.04 308.055Z" fill="#5B41F5"/>
<path d="M397.097 197.604L402.798 201.88V193.329L397.097 197.604Z" fill="#5B41F5"/>
<g filter="url(#filter5_d)">
<rect x="451.254" y="219.694" width="48.4561" height="48.4561" rx="11.4014" fill="#17142A"/>
<rect x="451.61" y="220.051" width="47.7435" height="47.7435" rx="11.0451" stroke="#4732C5" stroke-width="0.712589"/>
</g>
<path d="M475.618 238.016C471.115 238.016 467.359 236.376 466.469 234.194C466.335 234.515 466.265 234.848 466.265 235.189C466.265 237.85 470.451 240.009 475.618 240.009C480.782 240.009 484.97 237.851 484.97 235.189C484.97 234.848 484.895 234.515 484.766 234.194C483.874 236.376 480.117 238.016 475.618 238.016Z" fill="#5B41F5"/>
<path d="M475.618 241.477C471.115 241.477 467.359 239.837 466.469 237.656C466.335 237.978 466.265 238.311 466.265 238.653C466.265 241.313 470.451 243.471 475.618 243.471C480.782 243.471 484.97 241.314 484.97 238.653C484.97 238.311 484.895 237.978 484.766 237.656C483.874 239.838 480.117 241.477 475.618 241.477Z" fill="#5B41F5"/>
<path d="M475.618 245.05C471.115 245.05 467.359 243.411 466.469 241.228C466.335 241.549 466.265 241.883 466.265 242.224C466.265 244.886 470.451 247.043 475.618 247.043C480.782 247.043 484.97 244.886 484.97 242.224C484.97 241.883 484.895 241.549 484.766 241.228C483.874 243.411 480.117 245.05 475.618 245.05Z" fill="#5B41F5"/>
<path d="M475.618 236.457C480.783 236.457 484.97 234.3 484.97 231.639C484.97 228.978 480.783 226.82 475.618 226.82C470.453 226.82 466.266 228.978 466.266 231.639C466.266 234.3 470.453 236.457 475.618 236.457Z" fill="#5B41F5"/>
<path d="M466.603 257.299L467.285 253.695H468.325L467.201 258.761H466.15L465.326 255.372L464.501 258.761H463.45L462.326 253.695H463.367L464.052 257.292L464.887 253.695H465.771L466.603 257.299ZM471.227 258.761H470.221V254.885L469.021 255.257V254.439L471.119 253.688H471.227V258.761ZM475.844 257.717H474.014L473.666 258.761H472.556L474.442 253.695H475.409L477.305 258.761H476.195L475.844 257.717ZM474.296 256.871H475.562L474.925 254.975L474.296 256.871ZM477.779 258.761V253.695H479.337C479.783 253.695 480.181 253.796 480.531 253.997C480.883 254.197 481.158 254.482 481.355 254.853C481.553 255.222 481.651 255.642 481.651 256.113V256.346C481.651 256.817 481.554 257.236 481.359 257.602C481.166 257.969 480.894 258.253 480.541 258.455C480.189 258.656 479.791 258.758 479.348 258.761H477.779ZM478.822 254.54V257.922H479.327C479.735 257.922 480.047 257.789 480.263 257.522C480.479 257.255 480.589 256.874 480.593 256.377V256.109C480.593 255.594 480.487 255.205 480.273 254.94C480.06 254.674 479.748 254.54 479.337 254.54H478.822ZM485.197 257.717H483.367L483.019 258.761H481.909L483.795 253.695H484.762L486.658 258.761H485.548L485.197 257.717ZM483.648 256.871H484.915L484.278 254.975L483.648 256.871ZM488.241 258.761H487.197V253.695H488.241V258.761Z" fill="white"/>
<g filter="url(#filter6_d)">
<rect x="451.254" y="283.827" width="48.4561" height="48.4561" rx="11.4014" fill="#17142A"/>
<rect x="451.61" y="284.184" width="47.7435" height="47.7435" rx="11.0451" stroke="#4732C5" stroke-width="0.712589"/>
</g>
<path d="M466.669 321.432L467.351 317.828H468.391L467.267 322.894H466.216L465.392 319.505L464.567 322.894H463.516L462.393 317.828H463.433L464.118 321.425L464.953 317.828H465.837L466.669 321.432ZM471.293 322.894H470.287V319.018L469.087 319.39V318.572L471.185 317.821H471.293V322.894ZM477.027 321.206C476.988 321.751 476.786 322.181 476.422 322.494C476.06 322.807 475.582 322.963 474.988 322.963C474.339 322.963 473.827 322.745 473.454 322.309C473.083 321.871 472.897 321.27 472.897 320.507V320.197C472.897 319.71 472.983 319.281 473.154 318.91C473.326 318.539 473.571 318.255 473.889 318.057C474.209 317.858 474.58 317.758 475.002 317.758C475.587 317.758 476.057 317.915 476.415 318.228C476.772 318.541 476.978 318.981 477.034 319.547H475.99C475.965 319.22 475.873 318.983 475.715 318.837C475.56 318.688 475.322 318.614 475.002 318.614C474.654 318.614 474.393 318.739 474.219 318.99C474.048 319.238 473.959 319.624 473.955 320.149V320.531C473.955 321.079 474.037 321.479 474.202 321.732C474.369 321.985 474.631 322.111 474.988 322.111C475.311 322.111 475.551 322.038 475.708 321.892C475.868 321.743 475.96 321.515 475.983 321.206H477.027ZM477.713 322.894V317.828H479.271C479.717 317.828 480.114 317.929 480.465 318.13C480.817 318.33 481.092 318.615 481.289 318.986C481.487 319.355 481.585 319.775 481.585 320.246V320.479C481.585 320.95 481.488 321.369 481.293 321.735C481.1 322.102 480.828 322.386 480.475 322.588C480.123 322.789 479.725 322.891 479.282 322.894H477.713ZM478.756 318.673V322.055H479.261C479.669 322.055 479.981 321.922 480.197 321.655C480.413 321.388 480.523 321.007 480.527 320.51V320.242C480.527 319.728 480.421 319.338 480.207 319.073C479.994 318.807 479.682 318.673 479.271 318.673H478.756ZM485.131 321.85H483.301L482.953 322.894H481.843L483.728 317.828H484.696L486.592 322.894H485.482L485.131 321.85ZM483.582 321.004H484.849L484.212 319.108L483.582 321.004ZM488.175 322.894H487.131V317.828H488.175V322.894Z" fill="white"/>
<path d="M475.618 302.149C471.115 302.149 467.359 300.509 466.469 298.327C466.335 298.649 466.265 298.981 466.265 299.322C466.265 301.983 470.451 304.142 475.618 304.142C480.782 304.142 484.97 301.984 484.97 299.322C484.97 298.981 484.895 298.649 484.766 298.327C483.874 300.509 480.117 302.149 475.618 302.149Z" fill="#5B41F5"/>
<path d="M475.618 305.61C471.115 305.61 467.359 303.97 466.469 301.79C466.335 302.111 466.265 302.444 466.265 302.786C466.265 305.446 470.451 307.604 475.618 307.604C480.782 307.604 484.97 305.447 484.97 302.786C484.97 302.444 484.895 302.111 484.766 301.79C483.874 303.971 480.117 305.61 475.618 305.61Z" fill="#5B41F5"/>
<path d="M475.618 309.183C471.115 309.183 467.359 307.544 466.469 305.361C466.335 305.682 466.265 306.016 466.265 306.357C466.265 309.019 470.451 311.176 475.618 311.176C480.782 311.176 484.97 309.02 484.97 306.357C484.97 306.016 484.895 305.682 484.766 305.361C483.874 307.544 480.117 309.183 475.618 309.183Z" fill="#5B41F5"/>
<path d="M475.618 300.59C480.783 300.59 484.97 298.433 484.97 295.772C484.97 293.111 480.783 290.953 475.618 290.953C470.453 290.953 466.266 293.111 466.266 295.772C466.266 298.433 470.453 300.59 475.618 300.59Z" fill="#5B41F5"/>
<g filter="url(#filter7_d)">
<rect x="18" y="122.07" width="62.7078" height="112.589" rx="11.4014" fill="#17142A"/>
<rect x="18.3563" y="122.426" width="61.9952" height="111.876" rx="11.0451" stroke="#4732C5" stroke-width="0.712589"/>
</g>
<path d="M42.6852 193.603H40.123L39.6359 195.065H38.0819L40.7221 187.972H42.0763L44.7312 195.065H43.1772L42.6852 193.603ZM40.5176 192.42H42.2907L41.3992 189.765L40.5176 192.42ZM46.7868 195.065H45.3742V187.583H46.7868V195.065ZM49.4368 195.065H48.0241V189.794H49.4368V195.065ZM47.9413 188.43C47.9413 188.219 48.0111 188.045 48.1507 187.909C48.2936 187.773 48.4869 187.704 48.7304 187.704C48.9707 187.704 49.1623 187.773 49.3052 187.909C49.4481 188.045 49.5196 188.219 49.5196 188.43C49.5196 188.645 49.4465 188.82 49.3004 188.956C49.1575 189.093 48.9675 189.161 48.7304 189.161C48.4934 189.161 48.3018 189.093 48.1556 188.956C48.0127 188.82 47.9413 188.645 47.9413 188.43ZM52.793 194.027C53.0528 194.027 53.2639 193.956 53.4263 193.813C53.5886 193.67 53.6731 193.48 53.6796 193.243H54.9997C54.9964 193.6 54.899 193.928 54.7074 194.227C54.5158 194.522 54.2528 194.753 53.9183 194.919C53.587 195.081 53.2201 195.162 52.8174 195.162C52.064 195.162 51.4697 194.924 51.0345 194.446C50.5993 193.966 50.3818 193.303 50.3818 192.459V192.366C50.3818 191.554 50.5977 190.906 51.0296 190.423C51.4616 189.939 52.0542 189.697 52.8076 189.697C53.4669 189.697 53.9946 189.885 54.3908 190.262C54.7902 190.635 54.9932 191.134 54.9997 191.757H53.6796C53.6731 191.484 53.5886 191.264 53.4263 191.095C53.2639 190.923 53.0496 190.837 52.7833 190.837C52.4553 190.837 52.2068 190.957 52.038 191.197C51.8724 191.434 51.7895 191.821 51.7895 192.356V192.503C51.7895 193.045 51.8724 193.435 52.038 193.672C52.2036 193.909 52.4553 194.027 52.793 194.027ZM58.2293 195.162C57.4564 195.162 56.8264 194.925 56.3393 194.451C55.8554 193.977 55.6134 193.345 55.6134 192.556V192.42C55.6134 191.89 55.7157 191.418 55.9203 191.002C56.1249 190.583 56.414 190.262 56.7874 190.038C57.1641 189.81 57.5928 189.697 58.0734 189.697C58.7944 189.697 59.361 189.924 59.7735 190.379C60.1891 190.833 60.397 191.478 60.397 192.313V192.887H57.0407C57.0862 193.232 57.2226 193.508 57.4499 193.715C57.6805 193.923 57.9711 194.027 58.3218 194.027C58.8642 194.027 59.288 193.831 59.5932 193.438L60.2849 194.212C60.0739 194.511 59.7881 194.745 59.4276 194.914C59.0671 195.079 58.6677 195.162 58.2293 195.162ZM58.0685 190.837C57.7893 190.837 57.5619 190.931 57.3866 191.119C57.2145 191.307 57.104 191.577 57.0553 191.928H59.0136V191.816C59.0071 191.504 58.9226 191.264 58.7603 191.095C58.5979 190.923 58.3673 190.837 58.0685 190.837Z" fill="white"/>
<circle cx="49.3539" cy="162.64" r="4.94062" fill="#5B41F5"/>
<path d="M49.3539 168.72C44.2377 168.72 40.0902 172.868 40.0902 177.984H58.6175C58.6175 172.868 54.47 168.72 49.3539 168.72Z" fill="#5B41F5"/>
<g filter="url(#filter8_d)">
<rect x="18" y="122.07" width="62.7078" height="112.589" rx="11.4014" fill="#17142A"/>
<rect x="18.3563" y="122.426" width="61.9952" height="111.876" rx="11.0451" stroke="#4732C5" stroke-width="0.712589"/>
</g>
<path d="M42.6852 193.603H40.123L39.6359 195.065H38.0819L40.7221 187.972H42.0763L44.7312 195.065H43.1772L42.6852 193.603ZM40.5176 192.42H42.2907L41.3992 189.765L40.5176 192.42ZM46.7868 195.065H45.3742V187.583H46.7868V195.065ZM49.4368 195.065H48.0241V189.794H49.4368V195.065ZM47.9413 188.43C47.9413 188.219 48.0111 188.045 48.1507 187.909C48.2936 187.773 48.4869 187.704 48.7304 187.704C48.9707 187.704 49.1623 187.773 49.3052 187.909C49.4481 188.045 49.5196 188.219 49.5196 188.43C49.5196 188.645 49.4465 188.82 49.3004 188.956C49.1575 189.093 48.9675 189.161 48.7304 189.161C48.4934 189.161 48.3018 189.093 48.1556 188.956C48.0127 188.82 47.9413 188.645 47.9413 188.43ZM52.793 194.027C53.0528 194.027 53.2639 193.956 53.4263 193.813C53.5886 193.67 53.6731 193.48 53.6796 193.243H54.9997C54.9964 193.6 54.899 193.928 54.7074 194.227C54.5158 194.522 54.2528 194.753 53.9183 194.919C53.587 195.081 53.2201 195.162 52.8174 195.162C52.064 195.162 51.4697 194.924 51.0345 194.446C50.5993 193.966 50.3818 193.303 50.3818 192.459V192.366C50.3818 191.554 50.5977 190.906 51.0296 190.423C51.4616 189.939 52.0542 189.697 52.8076 189.697C53.4669 189.697 53.9946 189.885 54.3908 190.262C54.7902 190.635 54.9932 191.134 54.9997 191.757H53.6796C53.6731 191.484 53.5886 191.264 53.4263 191.095C53.2639 190.923 53.0496 190.837 52.7833 190.837C52.4553 190.837 52.2068 190.957 52.038 191.197C51.8724 191.434 51.7895 191.821 51.7895 192.356V192.503C51.7895 193.045 51.8724 193.435 52.038 193.672C52.2036 193.909 52.4553 194.027 52.793 194.027ZM58.2293 195.162C57.4564 195.162 56.8264 194.925 56.3393 194.451C55.8554 193.977 55.6134 193.345 55.6134 192.556V192.42C55.6134 191.89 55.7157 191.418 55.9203 191.002C56.1249 190.583 56.414 190.262 56.7874 190.038C57.1641 189.81 57.5928 189.697 58.0734 189.697C58.7944 189.697 59.361 189.924 59.7735 190.379C60.1891 190.833 60.397 191.478 60.397 192.313V192.887H57.0407C57.0862 193.232 57.2226 193.508 57.4499 193.715C57.6805 193.923 57.9711 194.027 58.3218 194.027C58.8642 194.027 59.288 193.831 59.5932 193.438L60.2849 194.212C60.0739 194.511 59.7881 194.745 59.4276 194.914C59.0671 195.079 58.6677 195.162 58.2293 195.162ZM58.0685 190.837C57.7893 190.837 57.5619 190.931 57.3866 191.119C57.2145 191.307 57.104 191.577 57.0553 191.928H59.0136V191.816C59.0071 191.504 58.9226 191.264 58.7603 191.095C58.5979 190.923 58.3673 190.837 58.0685 190.837Z" fill="white"/>
<circle cx="49.3539" cy="162.64" r="4.94062" fill="#5B41F5"/>
<path d="M49.3539 168.72C44.2377 168.72 40.0902 172.868 40.0902 177.984H58.6175C58.6175 172.868 54.47 168.72 49.3539 168.72Z" fill="#5B41F5"/>
<g filter="url(#filter9_d)">
<rect x="555.292" y="33.7086" width="62.7078" height="112.589" rx="11.4014" fill="#17142A"/>
<rect x="555.648" y="34.0649" width="61.9952" height="111.876" rx="11.0451" stroke="#4732C5" stroke-width="0.712589"/>
</g>
<path d="M578.819 106.704V99.6112H581.303C582.164 99.6112 582.816 99.7769 583.261 100.108C583.706 100.436 583.929 100.918 583.929 101.555C583.929 101.902 583.839 102.209 583.661 102.476C583.482 102.739 583.234 102.932 582.915 103.055C583.279 103.146 583.565 103.33 583.773 103.606C583.984 103.882 584.089 104.219 584.089 104.619C584.089 105.301 583.872 105.817 583.437 106.168C583.001 106.519 582.381 106.697 581.576 106.704H578.819ZM580.28 103.615V105.53H581.532C581.876 105.53 582.144 105.449 582.336 105.286C582.531 105.121 582.628 104.893 582.628 104.604C582.628 103.955 582.292 103.625 581.62 103.615H580.28ZM580.28 102.583H581.362C582.099 102.57 582.467 102.276 582.467 101.701C582.467 101.379 582.373 101.149 582.185 101.009C582 100.866 581.706 100.795 581.303 100.795H580.28V102.583ZM584.879 104.02C584.879 103.497 584.979 103.031 585.181 102.622C585.382 102.212 585.671 101.896 586.048 101.672C586.428 101.448 586.868 101.336 587.368 101.336C588.079 101.336 588.659 101.553 589.107 101.988C589.558 102.424 589.81 103.015 589.862 103.762L589.872 104.122C589.872 104.931 589.646 105.58 589.194 106.07C588.743 106.558 588.137 106.801 587.377 106.801C586.618 106.801 586.01 106.558 585.556 106.07C585.104 105.583 584.879 104.921 584.879 104.083V104.02ZM586.286 104.122C586.286 104.622 586.38 105.005 586.569 105.272C586.757 105.535 587.027 105.666 587.377 105.666C587.718 105.666 587.985 105.536 588.176 105.276C588.368 105.013 588.464 104.594 588.464 104.02C588.464 103.529 588.368 103.149 588.176 102.88C587.985 102.61 587.715 102.476 587.368 102.476C587.023 102.476 586.757 102.61 586.569 102.88C586.38 103.146 586.286 103.56 586.286 104.122ZM595.488 104.117C595.488 104.961 595.308 105.621 594.947 106.095C594.587 106.566 594.084 106.801 593.437 106.801C592.866 106.801 592.409 106.582 592.068 106.144L592.005 106.704H590.739V99.2215H592.146V101.906C592.471 101.526 592.898 101.336 593.428 101.336C594.071 101.336 594.574 101.573 594.938 102.047C595.305 102.518 595.488 103.182 595.488 104.039V104.117ZM594.08 104.015C594.08 103.482 593.996 103.094 593.827 102.851C593.658 102.604 593.406 102.48 593.072 102.48C592.624 102.48 592.315 102.664 592.146 103.031V105.111C592.318 105.481 592.63 105.666 593.082 105.666C593.536 105.666 593.835 105.442 593.978 104.994C594.046 104.78 594.08 104.453 594.08 104.015Z" fill="white"/>
<circle cx="586.646" cy="74.2786" r="4.94062" fill="#5B41F5"/>
<path d="M586.646 80.3594C581.53 80.3594 577.382 84.5069 577.382 89.6231H595.91C595.91 84.5069 591.762 80.3594 586.646 80.3594Z" fill="#5B41F5"/>
<g filter="url(#filter10_d)">
<rect x="555.292" y="220.407" width="62.7078" height="112.589" rx="11.4014" fill="#17142A"/>
<rect x="555.648" y="220.763" width="61.9952" height="111.876" rx="11.0451" stroke="#4732C5" stroke-width="0.712589"/>
</g>
<path d="M581.03 291.039C580.974 291.803 580.692 292.403 580.182 292.842C579.675 293.28 579.006 293.499 578.175 293.499C577.266 293.499 576.55 293.194 576.027 292.584C575.507 291.97 575.247 291.129 575.247 290.06V289.627C575.247 288.945 575.368 288.344 575.608 287.824C575.848 287.305 576.191 286.907 576.636 286.631C577.084 286.352 577.603 286.212 578.195 286.212C579.013 286.212 579.672 286.431 580.172 286.87C580.672 287.308 580.961 287.923 581.039 288.716H579.578C579.542 288.258 579.414 287.927 579.193 287.722C578.976 287.514 578.643 287.41 578.195 287.41C577.707 287.41 577.342 287.586 577.098 287.936C576.858 288.284 576.735 288.825 576.728 289.559V290.094C576.728 290.861 576.844 291.421 577.074 291.775C577.308 292.129 577.675 292.306 578.175 292.306C578.626 292.306 578.963 292.204 579.183 291.999C579.407 291.791 579.536 291.471 579.568 291.039H581.03ZM584.951 293.402C584.886 293.275 584.839 293.118 584.81 292.929C584.469 293.309 584.025 293.499 583.48 293.499C582.963 293.499 582.535 293.35 582.194 293.051C581.856 292.752 581.687 292.376 581.687 291.921C581.687 291.363 581.893 290.934 582.306 290.635C582.721 290.336 583.321 290.185 584.103 290.182H584.751V289.88C584.751 289.637 584.688 289.442 584.561 289.296C584.438 289.149 584.241 289.076 583.972 289.076C583.735 289.076 583.548 289.133 583.412 289.247C583.278 289.36 583.212 289.516 583.212 289.714H581.804C581.804 289.409 581.898 289.127 582.087 288.867C582.275 288.607 582.541 288.404 582.885 288.258C583.23 288.109 583.616 288.034 584.045 288.034C584.694 288.034 585.209 288.198 585.589 288.526C585.972 288.851 586.164 289.309 586.164 289.9V292.184C586.167 292.684 586.237 293.063 586.373 293.319V293.402H584.951ZM583.787 292.423C583.995 292.423 584.186 292.377 584.361 292.286C584.537 292.192 584.667 292.067 584.751 291.911V291.005H584.225C583.52 291.005 583.145 291.249 583.1 291.736L583.095 291.819C583.095 291.994 583.157 292.139 583.28 292.252C583.403 292.366 583.572 292.423 583.787 292.423ZM590.207 289.451C590.015 289.425 589.846 289.412 589.7 289.412C589.168 289.412 588.819 289.593 588.653 289.953V293.402H587.245V288.131H588.575L588.614 288.76C588.897 288.276 589.288 288.034 589.788 288.034C589.944 288.034 590.09 288.055 590.226 288.097L590.207 289.451ZM590.494 290.718C590.494 290.195 590.595 289.729 590.796 289.32C590.998 288.911 591.287 288.594 591.663 288.37C592.043 288.146 592.483 288.034 592.984 288.034C593.695 288.034 594.274 288.251 594.723 288.687C595.174 289.122 595.426 289.713 595.478 290.46L595.487 290.82C595.487 291.629 595.262 292.278 594.81 292.769C594.359 293.256 593.753 293.499 592.993 293.499C592.233 293.499 591.626 293.256 591.171 292.769C590.72 292.282 590.494 291.619 590.494 290.781V290.718ZM591.902 290.82C591.902 291.32 591.996 291.704 592.185 291.97C592.373 292.233 592.643 292.364 592.993 292.364C593.334 292.364 593.601 292.235 593.792 291.975C593.984 291.712 594.08 291.293 594.08 290.718C594.08 290.228 593.984 289.848 593.792 289.578C593.601 289.309 593.331 289.174 592.984 289.174C592.639 289.174 592.373 289.309 592.185 289.578C591.996 289.844 591.902 290.258 591.902 290.82ZM597.84 293.402H596.427V285.92H597.84V293.402Z" fill="white"/>
<circle cx="586.646" cy="260.977" r="4.94062" fill="#5B41F5"/>
<path d="M586.646 267.058C581.53 267.058 577.382 271.205 577.382 276.321H595.91C595.91 271.205 591.762 267.058 586.646 267.058Z" fill="#5B41F5"/>
<defs>
<filter id="filter0_d" x="157.438" y="0.747223" width="268.393" height="395.234" filterUnits="userSpaceOnUse" color-interpolation-filters="sRGB">
<feFlood flood-opacity="0" result="BackgroundImageFix"/>
<feColorMatrix in="SourceAlpha" type="matrix" values="0 0 0 0 0 0 0 0 0 0 0 0 0 0 0 0 0 0 127 0"/>
<feOffset dy="20"/>
<feGaussianBlur stdDeviation="21.4925"/>
<feColorMatrix type="matrix" values="0 0 0 0 0.356863 0 0 0 0 0.254902 0 0 0 0 0.960784 0 0 0 0.25 0"/>
<feBlend mode="normal" in2="BackgroundImageFix" result="effect1_dropShadow"/>
<feBlend mode="normal" in="SourceGraphic" in2="effect1_dropShadow" result="shape"/>
</filter>
<filter id="filter1_d" x="96.3848" y="104.968" width="82.6603" height="82.6603" filterUnits="userSpaceOnUse" color-interpolation-filters="sRGB">
<feFlood flood-opacity="0" result="BackgroundImageFix"/>
<feColorMatrix in="SourceAlpha" type="matrix" values="0 0 0 0 0 0 0 0 0 0 0 0 0 0 0 0 0 0 127 0"/>
<feOffset/>
<feGaussianBlur stdDeviation="8.55107"/>
<feColorMatrix type="matrix" values="0 0 0 0 0.356863 0 0 0 0 0.254902 0 0 0 0 0.960784 0 0 0 0.25 0"/>
<feBlend mode="normal" in2="BackgroundImageFix" result="effect1_dropShadow"/>
<feBlend mode="normal" in="SourceGraphic" in2="effect1_dropShadow" result="shape"/>
</filter>
<filter id="filter2_d" x="96.3848" y="169.1" width="82.6603" height="82.6603" filterUnits="userSpaceOnUse" color-interpolation-filters="sRGB">
<feFlood flood-opacity="0" result="BackgroundImageFix"/>
<feColorMatrix in="SourceAlpha" type="matrix" values="0 0 0 0 0 0 0 0 0 0 0 0 0 0 0 0 0 0 127 0"/>
<feOffset/>
<feGaussianBlur stdDeviation="8.55107"/>
<feColorMatrix type="matrix" values="0 0 0 0 0.356863 0 0 0 0 0.254902 0 0 0 0 0.960784 0 0 0 0.25 0"/>
<feBlend mode="normal" in2="BackgroundImageFix" result="effect1_dropShadow"/>
<feBlend mode="normal" in="SourceGraphic" in2="effect1_dropShadow" result="shape"/>
</filter>
<filter id="filter3_d" x="434.152" y="16.6064" width="82.6603" height="82.6603" filterUnits="userSpaceOnUse" color-interpolation-filters="sRGB">
<feFlood flood-opacity="0" result="BackgroundImageFix"/>
<feColorMatrix in="SourceAlpha" type="matrix" values="0 0 0 0 0 0 0 0 0 0 0 0 0 0 0 0 0 0 127 0"/>
<feOffset/>
<feGaussianBlur stdDeviation="8.55107"/>
<feColorMatrix type="matrix" values="0 0 0 0 0.356863 0 0 0 0 0.254902 0 0 0 0 0.960784 0 0 0 0.25 0"/>
<feBlend mode="normal" in2="BackgroundImageFix" result="effect1_dropShadow"/>
<feBlend mode="normal" in="SourceGraphic" in2="effect1_dropShadow" result="shape"/>
</filter>
<filter id="filter4_d" x="434.152" y="80.7394" width="82.6603" height="82.6603" filterUnits="userSpaceOnUse" color-interpolation-filters="sRGB">
<feFlood flood-opacity="0" result="BackgroundImageFix"/>
<feColorMatrix in="SourceAlpha" type="matrix" values="0 0 0 0 0 0 0 0 0 0 0 0 0 0 0 0 0 0 127 0"/>
<feOffset/>
<feGaussianBlur stdDeviation="8.55107"/>
<feColorMatrix type="matrix" values="0 0 0 0 0.356863 0 0 0 0 0.254902 0 0 0 0 0.960784 0 0 0 0.25 0"/>
<feBlend mode="normal" in2="BackgroundImageFix" result="effect1_dropShadow"/>
<feBlend mode="normal" in="SourceGraphic" in2="effect1_dropShadow" result="shape"/>
</filter>
<filter id="filter5_d" x="434.152" y="202.592" width="82.6603" height="82.6603" filterUnits="userSpaceOnUse" color-interpolation-filters="sRGB">
<feFlood flood-opacity="0" result="BackgroundImageFix"/>
<feColorMatrix in="SourceAlpha" type="matrix" values="0 0 0 0 0 0 0 0 0 0 0 0 0 0 0 0 0 0 127 0"/>
<feOffset/>
<feGaussianBlur stdDeviation="8.55107"/>
<feColorMatrix type="matrix" values="0 0 0 0 0.356863 0 0 0 0 0.254902 0 0 0 0 0.960784 0 0 0 0.25 0"/>
<feBlend mode="normal" in2="BackgroundImageFix" result="effect1_dropShadow"/>
<feBlend mode="normal" in="SourceGraphic" in2="effect1_dropShadow" result="shape"/>
</filter>
<filter id="filter6_d" x="434.152" y="266.725" width="82.6603" height="82.6603" filterUnits="userSpaceOnUse" color-interpolation-filters="sRGB">
<feFlood flood-opacity="0" result="BackgroundImageFix"/>
<feColorMatrix in="SourceAlpha" type="matrix" values="0 0 0 0 0 0 0 0 0 0 0 0 0 0 0 0 0 0 127 0"/>
<feOffset/>
<feGaussianBlur stdDeviation="8.55107"/>
<feColorMatrix type="matrix" values="0 0 0 0 0.356863 0 0 0 0 0.254902 0 0 0 0 0.960784 0 0 0 0.25 0"/>
<feBlend mode="normal" in2="BackgroundImageFix" result="effect1_dropShadow"/>
<feBlend mode="normal" in="SourceGraphic" in2="effect1_dropShadow" result="shape"/>
</filter>
<filter id="filter7_d" x="0.89786" y="104.968" width="96.9121" height="146.793" filterUnits="userSpaceOnUse" color-interpolation-filters="sRGB">
<feFlood flood-opacity="0" result="BackgroundImageFix"/>
<feColorMatrix in="SourceAlpha" type="matrix" values="0 0 0 0 0 0 0 0 0 0 0 0 0 0 0 0 0 0 127 0"/>
<feOffset/>
<feGaussianBlur stdDeviation="8.55107"/>
<feColorMatrix type="matrix" values="0 0 0 0 0.356863 0 0 0 0 0.254902 0 0 0 0 0.960784 0 0 0 0.25 0"/>
<feBlend mode="normal" in2="BackgroundImageFix" result="effect1_dropShadow"/>
<feBlend mode="normal" in="SourceGraphic" in2="effect1_dropShadow" result="shape"/>
</filter>
<filter id="filter8_d" x="0.89786" y="104.968" width="96.9121" height="146.793" filterUnits="userSpaceOnUse" color-interpolation-filters="sRGB">
<feFlood flood-opacity="0" result="BackgroundImageFix"/>
<feColorMatrix in="SourceAlpha" type="matrix" values="0 0 0 0 0 0 0 0 0 0 0 0 0 0 0 0 0 0 127 0"/>
<feOffset/>
<feGaussianBlur stdDeviation="8.55107"/>
<feColorMatrix type="matrix" values="0 0 0 0 0.356863 0 0 0 0 0.254902 0 0 0 0 0.960784 0 0 0 0.25 0"/>
<feBlend mode="normal" in2="BackgroundImageFix" result="effect1_dropShadow"/>
<feBlend mode="normal" in="SourceGraphic" in2="effect1_dropShadow" result="shape"/>
</filter>
<filter id="filter9_d" x="538.19" y="16.6064" width="96.9121" height="146.793" filterUnits="userSpaceOnUse" color-interpolation-filters="sRGB">
<feFlood flood-opacity="0" result="BackgroundImageFix"/>
<feColorMatrix in="SourceAlpha" type="matrix" values="0 0 0 0 0 0 0 0 0 0 0 0 0 0 0 0 0 0 127 0"/>
<feOffset/>
<feGaussianBlur stdDeviation="8.55107"/>
<feColorMatrix type="matrix" values="0 0 0 0 0.356863 0 0 0 0 0.254902 0 0 0 0 0.960784 0 0 0 0.25 0"/>
<feBlend mode="normal" in2="BackgroundImageFix" result="effect1_dropShadow"/>
<feBlend mode="normal" in="SourceGraphic" in2="effect1_dropShadow" result="shape"/>
</filter>
<filter id="filter10_d" x="538.19" y="203.305" width="96.9121" height="146.793" filterUnits="userSpaceOnUse" color-interpolation-filters="sRGB">
<feFlood flood-opacity="0" result="BackgroundImageFix"/>
<feColorMatrix in="SourceAlpha" type="matrix" values="0 0 0 0 0 0 0 0 0 0 0 0 0 0 0 0 0 0 127 0"/>
<feOffset/>
<feGaussianBlur stdDeviation="8.55107"/>
<feColorMatrix type="matrix" values="0 0 0 0 0.356863 0 0 0 0 0.254902 0 0 0 0 0.960784 0 0 0 0.25 0"/>
<feBlend mode="normal" in2="BackgroundImageFix" result="effect1_dropShadow"/>
<feBlend mode="normal" in="SourceGraphic" in2="effect1_dropShadow" result="shape"/>
</filter>
<linearGradient id="paint0_linear" x1="180.697" y1="146.298" x2="80.7078" y2="146.298" gradientUnits="userSpaceOnUse">
<stop offset="0.541668" stop-color="#5B41F5"/>
<stop offset="1" stop-color="#0F0F13"/>
</linearGradient>
<linearGradient id="paint1_linear" x1="100.434" y1="210.431" x2="200.423" y2="210.431" gradientUnits="userSpaceOnUse">
<stop offset="0.541668" stop-color="#5B41F5"/>
<stop offset="1" stop-color="#0F0F13"/>
</linearGradient>
<linearGradient id="paint2_linear" x1="455.853" y1="149.149" x2="382.846" y2="149.149" gradientUnits="userSpaceOnUse">
<stop offset="0.541668" stop-color="#5B41F5"/>
<stop offset="1" stop-color="#0F0F13"/>
</linearGradient>
<linearGradient id="paint3_linear" x1="402.498" y1="168.379" x2="535.34" y2="168.379" gradientUnits="userSpaceOnUse">
<stop offset="0.541668" stop-color="#5B41F5"/>
<stop offset="1" stop-color="#0F0F13"/>
</linearGradient>
<linearGradient id="paint4_linear" x1="455.853" y1="216.843" x2="382.846" y2="216.843" gradientUnits="userSpaceOnUse">
<stop offset="0.541668" stop-color="#5B41F5"/>
<stop offset="1" stop-color="#0F0F13"/>
</linearGradient>
<linearGradient id="paint5_linear" x1="402.498" y1="197.613" x2="535.34" y2="197.613" gradientUnits="userSpaceOnUse">
<stop offset="0.541668" stop-color="#5B41F5"/>
<stop offset="1" stop-color="#0F0F13"/>
</linearGradient>
</defs>
</svg>
